<?xml version="1.0" encoding="UTF-8"?>
<!DOCTYPE svg PUBLIC "-//W3C//DTD SVG 1.1//EN" "http://www.w3.org/Graphics/SVG/1.1/DTD/svg11.dtd">
<!-- Creator: CorelDRAW (Versão de avaliação) -->
<svg xmlns="http://www.w3.org/2000/svg" xml:space="preserve" width="145.233mm" height="29.4196mm" version="1.1" style="shape-rendering:geometricPrecision; text-rendering:geometricPrecision; image-rendering:optimizeQuality; fill-rule:evenodd; clip-rule:evenodd"
viewBox="0 0 52372.59 10609.05"
 xmlns:xlink="http://www.w3.org/1999/xlink"
 xmlns:xodm="http://www.corel.com/coreldraw/odm/2003">
 <defs>
  <style type="text/css">
   <![CDATA[
    .fil0 {fill:black;fill-rule:nonzero}
   ]]>
  </style>
 </defs>
 <g id="Layer_x0020_1">
  <metadata id="CorelCorpID_0Corel-Layer"/>
  <path class="fil0" d="M441.64 4682.87l0 -798.68 1074.08 0c313.98,0 556.32,-99.13 716.07,-291.95 159.75,-198.26 242.37,-468.18 242.37,-809.68 0,-347.02 -82.62,-616.9 -242.37,-809.72 -159.75,-192.78 -402.08,-291.92 -716.07,-291.92l-1074.08 0 0 -798.68 1129.18 0c380.05,0 699.51,77.1 963.91,236.85 264.4,154.23 462.7,374.57 600.38,660.96 137.72,280.92 209.3,616.93 209.3,1002.5 0,385.57 -71.58,721.58 -209.3,1007.98 -137.68,280.92 -335.98,501.25 -600.38,661 -264.4,154.23 -583.87,231.33 -963.91,231.33l-1129.18 0zm-374.57 0l0 -3800.63 853.78 0 0 3800.63 -853.78 0z"/>
  <polygon class="fil0" points="3884.22,4682.87 3884.22,882.24 4738,882.24 4738,4682.87 "/>
  <path class="fil0" d="M5795.57 3399.45l0 -798.68 1134.66 0c209.34,0 358.05,-38.55 451.67,-115.65 93.65,-82.62 143.23,-198.3 143.23,-347.02 0,-148.72 -49.58,-264.4 -143.23,-341.5 -93.61,-77.13 -242.33,-115.68 -451.67,-115.68l-1134.66 0 0 -798.68 1184.25 0c457.18,0 809.72,115.68 1052.05,341.5 242.37,225.85 363.53,534.28 363.53,914.37 0,380.05 -121.17,688.52 -363.53,919.85 -242.33,225.85 -594.86,341.5 -1052.05,341.5l-1184.25 0zm-374.57 1283.42l0 -3800.63 853.78 0 0 3800.63 -853.78 0zm2120.65 0l-996.98 -1646.95 881.3 0 1074.12 1646.95 -958.43 0z"/>
  <path class="fil0" d="M8957.23 4682.87l0 -3800.63 853.78 0 0 3800.63 -853.78 0zm374.57 0l0 -798.68 2489.7 0 0 798.68 -2489.7 0zm0 -1553.3l0 -754.62 2230.82 0 0 754.62 -2230.82 0zm0 -1448.65l0 -798.68 2467.66 0 0 798.68 -2467.66 0z"/>
  <path class="fil0" d="M13231.56 4682.87l0 -3800.63 848.27 0 0 3800.63 -848.27 0zm-1101.63 -3001.95l0 -798.68 3051.53 0 0 798.68 -3051.53 0z"/>
  <path class="fil0" d="M17180.91 4759.96c-358.02,0 -671.96,-77.1 -941.88,-236.85 -269.88,-154.2 -479.22,-380.05 -633.45,-671.96 -148.72,-297.47 -225.81,-655.48 -225.81,-1068.6 0,-413.12 77.1,-771.13 225.81,-1063.08 154.23,-297.43 363.57,-523.28 633.45,-677.48 269.92,-159.75 583.87,-236.85 941.88,-236.85 358.05,0 672,77.1 941.92,236.85 269.88,154.2 479.22,380.05 633.45,677.48 148.72,291.95 225.81,649.97 225.81,1063.08 0,413.12 -77.1,771.13 -231.33,1068.6 -148.72,291.92 -363.53,517.77 -633.45,671.96 -269.88,159.75 -578.35,236.85 -936.4,236.85zm0 -804.16c280.92,0 506.77,-99.17 677.52,-297.47 170.75,-192.78 253.37,-484.7 253.37,-870.26 0,-391.08 -82.62,-688.52 -253.37,-881.3 -170.75,-198.3 -396.6,-297.47 -677.52,-297.47 -280.92,0 -506.73,99.17 -677.48,297.47 -170.75,192.78 -253.37,490.22 -253.37,881.3 0,385.57 82.62,677.48 253.37,870.26 170.75,198.3 396.56,297.47 677.48,297.47z"/>
  <path class="fil0" d="M19896.45 3399.45l0 -798.68 1134.66 0c209.34,0 358.05,-38.55 451.67,-115.65 93.65,-82.62 143.23,-198.3 143.23,-347.02 0,-148.72 -49.58,-264.4 -143.23,-341.5 -93.61,-77.13 -242.33,-115.68 -451.67,-115.68l-1134.66 0 0 -798.68 1184.25 0c457.18,0 809.72,115.68 1052.05,341.5 242.37,225.85 363.53,534.28 363.53,914.37 0,380.05 -121.17,688.52 -363.53,919.85 -242.33,225.85 -594.86,341.5 -1052.05,341.5l-1184.25 0zm-374.57 1283.42l0 -3800.63 853.78 0 0 3800.63 -853.78 0zm2120.65 0l-996.98 -1646.95 881.3 0 1074.12 1646.95 -958.43 0z"/>
  <polygon class="fil0" points="23058.12,4682.87 23058.12,882.24 23911.9,882.24 23911.9,4682.87 "/>
  <path class="fil0" d="M27057.05 4682.87l-1156.7 -3800.63 853.75 0 1217.32 3800.63 -914.37 0zm-2803.65 0l1217.32 -3800.63 804.16 0 -1123.67 3800.63 -897.81 0zm842.75 -870.3l0 -754.62 2027 0 0 754.62 -2027 0z"/>
  <path class="fil0" d="M30185.71 4682.87l0 -3800.63 848.27 0 0 3800.63 -848.27 0zm-1101.63 -3001.95l0 -798.68 3051.53 0 0 798.68 -3051.53 0z"/>
  <path class="fil0" d="M32587.28 4682.87l0 -3800.63 853.78 0 0 3800.63 -853.78 0zm374.57 0l0 -798.68 2489.7 0 0 798.68 -2489.7 0zm0 -1553.3l0 -754.62 2230.82 0 0 754.62 -2230.82 0zm0 -1448.65l0 -798.68 2467.66 0 0 798.68 -2467.66 0zm694.03 -1046.57l567.31 -633.41 930.88 0 -831.71 633.41 -666.48 0z"/>
  <path class="fil0" d="M37610.7 4759.96c-347.02,0 -655.45,-82.62 -919.85,-247.85 -264.4,-159.75 -473.7,-391.08 -622.42,-688.52 -148.72,-297.43 -220.33,-644.45 -220.33,-1041.05 0,-402.08 71.62,-749.1 220.33,-1041.05 148.72,-297.43 358.02,-528.76 622.42,-688.52 264.4,-165.23 567.35,-247.85 914.33,-247.85 286.43,0 545.32,55.07 771.17,159.71 225.81,104.65 418.6,258.88 572.83,451.67 154.23,192.78 258.88,429.63 313.98,699.55l-848.27 231.33c-38.55,-231.33 -126.68,-413.12 -269.92,-539.8 -137.68,-132.2 -319.47,-198.3 -539.8,-198.3 -269.88,0 -484.7,104.65 -644.45,313.98 -159.71,203.78 -242.33,490.22 -242.33,859.27 0,363.53 82.62,649.97 242.33,859.27 159.75,209.34 380.08,313.98 649.97,313.98 225.85,0 413.12,-66.1 556.32,-198.3 137.72,-132.2 225.85,-313.98 264.4,-550.83l842.75 231.37c-55.07,269.88 -159.71,506.73 -308.47,705.03 -154.2,198.3 -346.98,352.53 -572.83,457.18 -231.33,104.65 -490.22,159.71 -782.17,159.71z"/>
  <path class="fil0" d="M41637.18 4682.87l-1321.97 -3800.63 870.3 0 1321.93 3800.63 -870.26 0zm-1867.28 0l0 -3800.63 809.72 0 0 3800.63 -809.72 0zm2473.18 0l0 -3800.63 809.68 0 0 3800.63 -809.68 0z"/>
  <polygon class="fil0" points="43735.76,4682.87 43735.76,882.24 44589.55,882.24 44589.55,4682.87 "/>
  <path class="fil0" d="M46891.94 4759.96c-347.02,0 -655.45,-82.62 -919.85,-247.85 -264.4,-159.75 -473.7,-391.08 -622.42,-688.52 -148.72,-297.43 -220.33,-644.45 -220.33,-1041.05 0,-402.08 71.62,-749.1 220.33,-1041.05 148.72,-297.43 358.02,-528.76 622.42,-688.52 264.4,-165.23 567.35,-247.85 914.33,-247.85 286.43,0 545.32,55.07 771.17,159.71 225.81,104.65 418.6,258.88 572.83,451.67 154.23,192.78 258.88,429.63 313.98,699.55l-848.27 231.33c-38.55,-231.33 -126.68,-413.12 -269.92,-539.8 -137.68,-132.2 -319.47,-198.3 -539.8,-198.3 -269.88,0 -484.7,104.65 -644.45,313.98 -159.71,203.78 -242.33,490.22 -242.33,859.27 0,363.53 82.62,649.97 242.33,859.27 159.75,209.34 380.08,313.98 649.97,313.98 225.85,0 413.12,-66.1 556.32,-198.3 137.72,-132.2 225.85,-313.98 264.4,-550.83l842.75 231.37c-55.07,269.88 -159.71,506.73 -308.47,705.03 -154.2,198.3 -346.98,352.53 -572.83,457.18 -231.33,104.65 -490.22,159.71 -782.17,159.71z"/>
  <path class="fil0" d="M51458.22 4682.87l-1156.7 -3800.63 853.75 0 1217.32 3800.63 -914.37 0zm-2803.65 0l1217.32 -3800.63 804.16 0 -1123.67 3800.63 -897.81 0zm842.75 -870.3l0 -754.62 2027 0 0 754.62 -2027 0z"/>
  <path class="fil0" d="M616.07 6687.79c-41.18,0 -76.99,8.94 -109.23,25.06 -32.24,17.92 -59.1,42.98 -82.4,75.22 -23.26,34.04 -39.38,73.46 -51.93,120.01 -12.55,46.55 -17.92,100.29 -17.92,159.39 0,80.6 10.75,146.84 30.47,202.38 19.69,55.53 51.93,96.72 93.11,125.35 41.18,26.87 94.91,41.22 157.62,41.22 55.5,0 111.03,-7.18 162.96,-23.3 53.73,-16.12 107.46,-34.04 161.19,-57.3l0 291.92c-55.53,25.06 -114.64,42.98 -173.74,53.73 -59.1,12.55 -121.78,17.92 -188.02,17.92 -137.9,0 -252.54,-26.87 -340.31,-82.4 -87.74,-55.5 -154.02,-132.52 -195.2,-231.04 -41.18,-98.48 -62.67,-211.32 -62.67,-340.27 0,-96.72 12.55,-184.45 39.38,-265.05 26.87,-80.6 68.08,-150.45 120.01,-209.55 51.93,-59.1 118.21,-105.66 195.2,-137.9 77.03,-32.24 164.76,-48.36 265.09,-48.36 62.67,0 127.15,7.18 195.2,21.49 68.05,14.35 134.33,37.61 200.57,68.05l-105.66 272.23c-46.55,-23.26 -93.11,-41.18 -141.47,-55.5 -48.36,-16.12 -98.52,-23.3 -152.25,-23.3z"/>
  <path class="fil0" d="M1672.73 6693.17c125.38,0 223.87,30.44 293.72,93.15 69.85,62.67 105.66,150.41 105.66,265.05l0 650.11 -236.38 0 -66.28 -130.72 -7.18 0c-26.87,34.01 -55.5,62.67 -85.97,85.93 -28.63,21.49 -62.67,37.61 -100.29,46.59 -37.61,10.75 -84.17,16.12 -139.7,16.12 -57.3,0 -109.23,-12.55 -154.02,-35.84 -44.75,-23.26 -80.6,-57.3 -107.43,-103.86 -26.87,-48.36 -39.41,-107.46 -39.41,-180.88 0,-105.66 35.81,-184.49 109.23,-236.42 73.46,-51.93 180.88,-80.6 320.58,-85.97l164.76 -5.37 0 -14.32c0,-44.79 -10.75,-75.22 -32.24,-93.15 -21.49,-19.69 -50.13,-28.63 -87.74,-28.63 -39.41,0 -82.4,7.14 -130.76,19.69 -48.36,14.32 -96.68,32.24 -145.04,53.73l-98.52 -225.67c57.3,-30.44 121.78,-51.93 193.43,-68.05 73.42,-14.32 154.02,-21.49 243.56,-21.49zm-19.69 569.51c-62.67,1.8 -105.66,14.35 -132.52,34.04 -25.1,19.69 -37.61,46.55 -37.61,82.36 0,34.04 8.94,59.1 26.87,75.22 17.89,16.12 41.18,23.3 71.62,23.3 41.22,0 77.03,-12.55 105.66,-39.41 30.47,-26.87 44.79,-60.87 44.79,-102.05l0 -77.03 -78.79 3.57z"/>
  <path class="fil0" d="M2924.63 6693.17c102.05,0 186.26,28.67 250.73,85.97 64.44,57.3 96.68,150.45 96.68,277.6l0 644.74 -342.04 0 0 -540.88c0,-66.24 -8.98,-114.6 -28.67,-148.64 -19.69,-34.01 -50.16,-50.13 -91.34,-50.13 -64.48,0 -107.46,26.87 -130.72,78.79 -21.49,51.93 -32.24,128.95 -32.24,227.44l0 433.42 -342.08 0 0 -990.38 257.87 0 46.59 130.72 12.51 0c21.49,-30.44 46.59,-57.3 75.22,-78.79 30.47,-23.3 64.48,-39.41 102.09,-51.93 37.61,-12.55 78.79,-17.92 125.38,-17.92z"/>
  <path class="fil0" d="M3812.93 7719.4c-102.09,0 -186.26,-42.98 -252.54,-130.76 -66.24,-87.74 -98.48,-214.92 -98.48,-381.45 0,-170.14 34.04,-297.29 100.29,-383.26 68.05,-87.77 155.82,-130.76 263.28,-130.76 44.75,0 82.36,7.18 114.6,19.69 32.24,12.55 60.91,28.67 84.17,51.96 23.3,21.49 44.79,46.55 60.91,73.42l7.18 0c-5.37,-25.06 -8.98,-59.1 -12.55,-103.89 -1.8,-44.75 -3.57,-87.74 -3.57,-128.92l0 -265.09 343.84 0 0 1361.13 -257.87 0 -73.46 -125.35 -12.51 0c-16.12,26.83 -35.84,50.13 -59.1,71.62 -23.3,21.49 -51.96,39.41 -85.97,51.93 -34.04,12.55 -73.42,19.73 -118.21,19.73zm139.7 -270.46c55.5,0 93.11,-17.89 116.41,-51.93 23.3,-34.01 34.04,-87.74 35.81,-159.39l0 -26.87c0,-76.99 -10.75,-137.9 -32.24,-179.08 -23.26,-41.22 -64.48,-62.71 -123.58,-62.71 -41.18,0 -73.42,19.73 -100.29,59.1 -26.87,39.41 -41.18,100.32 -41.18,184.49 0,82.36 14.32,141.47 41.18,179.08 26.87,37.61 60.91,57.3 103.89,57.3z"/>
  <path class="fil0" d="M5000.31 6711.09l0 990.38 -342.08 0 0 -990.38 342.08 0zm-170.14 -399.38c48.36,0 91.34,10.75 127.15,30.44 37.61,19.69 55.53,60.91 55.53,121.78 0,59.1 -17.92,98.52 -55.53,118.21 -35.81,21.49 -78.79,32.24 -127.15,32.24 -50.13,0 -93.11,-10.75 -127.15,-32.24 -35.81,-19.69 -53.73,-59.1 -53.73,-118.21 0,-60.87 17.92,-102.09 53.73,-121.78 34.04,-19.69 77.03,-30.44 127.15,-30.44z"/>
  <path class="fil0" d="M5546.57 7719.4c-102.09,0 -186.26,-42.98 -252.54,-130.76 -66.24,-87.74 -98.48,-214.92 -98.48,-381.45 0,-170.14 34.04,-297.29 100.29,-383.26 68.05,-87.77 155.82,-130.76 263.28,-130.76 44.75,0 82.36,7.18 114.6,19.69 32.24,12.55 60.91,28.67 84.17,51.96 23.3,21.49 44.79,46.55 60.91,73.42l7.18 0c-5.37,-25.06 -8.98,-59.1 -12.55,-103.89 -1.8,-44.75 -3.57,-87.74 -3.57,-128.92l0 -265.09 343.84 0 0 1361.13 -257.87 0 -73.46 -125.35 -12.51 0c-16.12,26.83 -35.84,50.13 -59.1,71.62 -23.3,21.49 -51.96,39.41 -85.97,51.93 -34.04,12.55 -73.42,19.73 -118.21,19.73zm139.7 -270.46c55.5,0 93.11,-17.89 116.41,-51.93 23.3,-34.01 34.04,-87.74 35.81,-159.39l0 -26.87c0,-76.99 -10.75,-137.9 -32.24,-179.08 -23.26,-41.22 -64.48,-62.71 -123.58,-62.71 -41.18,0 -73.42,19.73 -100.29,59.1 -26.87,39.41 -41.18,100.32 -41.18,184.49 0,82.36 14.32,141.47 41.18,179.08 26.87,37.61 60.91,57.3 103.89,57.3z"/>
  <path class="fil0" d="M6873.65 6693.17c125.38,0 223.87,30.44 293.72,93.15 69.85,62.67 105.66,150.41 105.66,265.05l0 650.11 -236.38 0 -66.28 -130.72 -7.18 0c-26.87,34.01 -55.5,62.67 -85.97,85.93 -28.63,21.49 -62.67,37.61 -100.29,46.59 -37.61,10.75 -84.17,16.12 -139.7,16.12 -57.3,0 -109.23,-12.55 -154.02,-35.84 -44.75,-23.26 -80.6,-57.3 -107.43,-103.86 -26.87,-48.36 -39.41,-107.46 -39.41,-180.88 0,-105.66 35.81,-184.49 109.23,-236.42 73.46,-51.93 180.88,-80.6 320.58,-85.97l164.76 -5.37 0 -14.32c0,-44.79 -10.75,-75.22 -32.24,-93.15 -21.49,-19.69 -50.13,-28.63 -87.74,-28.63 -39.41,0 -82.4,7.14 -130.76,19.69 -48.36,14.32 -96.68,32.24 -145.04,53.73l-98.52 -225.67c57.3,-30.44 121.78,-51.93 193.43,-68.05 73.42,-14.32 154.02,-21.49 243.56,-21.49zm-19.69 569.51c-62.67,1.8 -105.66,14.35 -132.52,34.04 -25.1,19.69 -37.61,46.55 -37.61,82.36 0,34.04 8.94,59.1 26.87,75.22 17.89,16.12 41.18,23.3 71.62,23.3 41.22,0 77.03,-12.55 105.66,-39.41 30.47,-26.87 44.79,-60.87 44.79,-102.05l0 -77.03 -78.79 3.57z"/>
  <path class="fil0" d="M7991.22 7448.94c30.44,0 59.1,-3.57 85.97,-8.94 25.06,-7.18 51.93,-16.12 78.79,-25.06l0 248.93c-37.61,16.12 -77.03,28.67 -118.21,39.41 -41.18,10.75 -94.91,16.12 -159.39,16.12 -64.48,0 -121.78,-10.75 -170.14,-30.47 -48.36,-19.69 -85.97,-55.5 -112.84,-103.86 -26.87,-50.16 -41.18,-120.01 -41.18,-209.55l0 -408.32 -120.01 0 0 -139.7 152.25 -107.46 87.74 -207.75 223.87 0 0 198.81 243.59 0 0 256.11 -243.59 0 0 385.06c0,32.2 7.18,55.5 23.3,71.62 16.12,16.12 39.38,25.06 69.85,25.06z"/>
  <path class="fil0" d="M9293.21 6711.09l0 990.38 -257.91 0 -42.95 -123.58 -19.73 0c-19.69,34.04 -46.55,60.91 -78.79,82.4 -30.44,19.69 -66.28,35.81 -103.89,44.75 -37.58,8.98 -75.19,14.35 -116.41,14.35 -64.48,0 -123.58,-12.55 -175.51,-37.61 -51.93,-25.1 -94.91,-64.48 -125.35,-118.21 -30.47,-53.73 -44.79,-123.58 -44.79,-207.75l0 -644.74 342.08 0 0 540.85c0,64.48 8.94,112.84 26.87,146.88 19.69,34.01 50.16,50.13 91.34,50.13 42.98,0 76.99,-10.75 100.29,-34.01 23.3,-23.3 41.18,-59.1 50.16,-103.89 8.94,-44.75 12.51,-100.29 12.51,-166.57l0 -433.38 342.08 0z"/>
  <path class="fil0" d="M10127.81 6693.17c19.69,0 39.38,1.8 59.1,3.57 19.69,1.8 35.81,5.37 44.75,7.18l-30.44 322.39c-12.55,-1.8 -26.87,-5.37 -42.98,-7.18 -17.92,-1.8 -42.98,-3.57 -73.42,-3.57 -21.49,0 -44.79,1.77 -69.85,7.14 -23.3,3.61 -46.55,12.55 -69.85,25.1 -21.49,12.51 -39.41,32.24 -51.93,59.1 -14.35,26.87 -21.49,62.67 -21.49,107.43l0 487.15 -342.08 0 0 -990.38 254.3 0 53.73 157.59 16.12 0c17.92,-32.24 41.18,-60.87 69.85,-87.74 28.67,-26.87 60.87,-48.36 94.91,-64.48 35.81,-16.12 71.65,-23.3 109.27,-23.3z"/>
  <path class="fil0" d="M10817.3 6693.17c125.38,0 223.87,30.44 293.72,93.15 69.85,62.67 105.66,150.41 105.66,265.05l0 650.11 -236.38 0 -66.28 -130.72 -7.18 0c-26.87,34.01 -55.5,62.67 -85.97,85.93 -28.63,21.49 -62.67,37.61 -100.29,46.59 -37.61,10.75 -84.17,16.12 -139.7,16.12 -57.3,0 -109.23,-12.55 -154.02,-35.84 -44.75,-23.26 -80.6,-57.3 -107.43,-103.86 -26.87,-48.36 -39.41,-107.46 -39.41,-180.88 0,-105.66 35.81,-184.49 109.23,-236.42 73.46,-51.93 180.88,-80.6 320.58,-85.97l164.76 -5.37 0 -14.32c0,-44.79 -10.75,-75.22 -32.24,-93.15 -21.49,-19.69 -50.13,-28.63 -87.74,-28.63 -39.41,0 -82.4,7.14 -130.76,19.69 -48.36,14.32 -96.68,32.24 -145.04,53.73l-98.52 -225.67c57.3,-30.44 121.78,-51.93 193.43,-68.05 73.42,-14.32 154.02,-21.49 243.56,-21.49zm-19.69 569.51c-62.67,1.8 -105.66,14.35 -132.52,34.04 -25.1,19.69 -37.61,46.55 -37.61,82.36 0,34.04 8.94,59.1 26.87,75.22 17.89,16.12 41.18,23.3 71.62,23.3 41.22,0 77.03,-12.55 105.66,-39.41 30.47,-26.87 44.79,-60.87 44.79,-102.05l0 -77.03 -78.79 3.57z"/>
  <polygon class="fil0" points="11732.5,7701.47 11773.68,7506.27 11942.05,7436.42 12099.64,6694.97 11959.93,6619.75 12001.15,6422.74 12658.4,6422.74 12617.22,6619.75 12441.71,6694.97 12284.12,7436.42 12425.59,7506.27 12384.41,7701.47 "/>
  <path class="fil0" d="M12579.61 7701.47l209.55 -990.38 270.42 0 -10.75 137.9 7.18 0c21.49,-37.61 44.79,-66.28 71.62,-89.54 26.87,-23.3 55.53,-39.41 87.77,-50.16 34.04,-10.75 71.65,-16.12 112.84,-16.12 62.67,0 112.84,12.55 150.45,37.61 37.61,26.87 66.24,60.91 84.17,103.89 17.89,41.18 26.87,87.74 26.87,139.66 0,34.04 -1.8,68.08 -5.37,102.09 -5.37,34.04 -10.75,68.05 -16.12,98.52l-111.03 526.53 -338.51 0 112.84 -540.88c3.57,-16.12 7.18,-34.01 10.75,-57.3 3.57,-23.26 5.37,-46.55 5.37,-66.24 0,-25.1 -7.18,-44.79 -19.69,-57.34 -12.55,-12.51 -28.67,-17.89 -46.59,-17.89 -21.49,0 -42.98,8.94 -62.67,28.63 -19.69,17.92 -39.38,44.79 -55.5,82.4 -16.12,37.61 -30.47,85.97 -42.98,145.07l-102.09 483.54 -338.51 0z"/>
  <path class="fil0" d="M14032.08 7719.4c-85.97,0 -152.25,-17.92 -197,-55.53 -44.79,-37.61 -66.28,-98.48 -66.28,-182.69 0,-23.26 1.8,-51.93 7.18,-82.36 5.37,-30.47 8.94,-59.1 14.32,-82.4l73.42 -351.02 -134.29 0 35.81 -166.57 189.83 -76.99 120.01 -209.55 225.63 0 -42.98 198.81 252.54 0 -55.5 254.3 -252.54 0 -73.42 334.9c-3.61,16.12 -7.18,34.04 -8.98,51.96 -3.57,16.08 -5.37,30.44 -5.37,39.38 0,19.69 5.37,34.04 16.12,42.98 10.75,8.94 23.3,12.55 39.41,12.55 23.3,0 48.36,-3.61 75.22,-10.75 26.87,-8.98 55.5,-17.92 84.17,-30.47l0 254.34c-37.61,17.89 -80.6,32.24 -128.95,42.98 -48.36,10.75 -103.86,16.12 -168.33,16.12z"/>
  <path class="fil0" d="M14957.99 7719.4c-84.2,0 -154.02,-16.12 -213.12,-46.59 -59.1,-32.24 -103.89,-76.99 -134.33,-136.09 -30.44,-59.1 -44.79,-128.95 -44.79,-209.55 0,-80.6 12.55,-159.39 35.84,-236.38 23.26,-75.22 57.3,-143.31 103.86,-202.38 46.55,-59.1 105.66,-107.46 177.31,-141.5 69.85,-35.81 154.02,-53.73 250.73,-53.73 111.03,0 198.77,25.06 261.48,75.22 62.67,50.16 94.91,116.41 94.91,200.57 0,55.53 -10.75,103.89 -32.24,148.68 -19.69,44.75 -51.93,82.36 -94.91,114.6 -42.98,32.24 -98.52,57.3 -166.57,75.22 -66.28,16.12 -146.84,25.06 -238.18,25.06l-51.96 0c0,1.8 0,5.37 0,7.18 0,1.8 0,5.37 0,7.18 0,44.75 12.55,76.99 35.84,98.48 23.26,19.69 59.1,30.44 107.46,30.44 50.13,0 96.68,-7.14 141.47,-23.26 44.79,-16.12 93.11,-35.84 145.07,-62.71l0 239.99c-51.96,26.87 -107.46,48.36 -164.76,64.48 -55.53,16.12 -127.15,25.1 -213.12,25.1zm7.14 -598.18c51.96,0 91.34,-7.18 120.01,-19.69 30.44,-14.35 51.93,-32.24 64.48,-51.96 12.51,-19.69 19.69,-41.18 19.69,-60.87 0,-19.73 -5.37,-35.84 -17.92,-48.36 -12.51,-12.55 -30.44,-17.92 -55.5,-17.92 -26.87,0 -50.16,10.75 -73.42,30.44 -21.49,19.73 -39.41,46.59 -53.73,77.03 -14.35,30.44 -23.3,60.91 -28.67,91.34l25.06 0z"/>
  <path class="fil0" d="M15548.96 7701.47l209.55 -990.38 270.42 0 -16.12 164.76 7.18 0c26.87,-46.55 55.53,-82.4 84.17,-109.27 28.67,-26.87 60.91,-46.55 94.91,-57.3 34.04,-10.75 73.46,-16.12 118.21,-16.12 12.55,0 26.87,0 41.18,1.8 14.35,1.77 23.3,3.57 28.67,5.37l-73.42 334.9c-12.55,-5.37 -26.87,-10.75 -46.55,-14.32 -19.73,-3.61 -39.41,-5.37 -60.91,-5.37 -26.87,0 -51.93,3.57 -75.22,12.51 -23.3,8.98 -42.98,21.49 -62.67,41.22 -17.92,19.69 -34.04,44.75 -50.16,76.99 -14.32,32.24 -26.87,71.65 -37.61,120.01l-93.11 435.19 -338.51 0z"/>
  <path class="fil0" d="M16331.59 7701.47l209.55 -990.38 270.42 0 -10.75 137.9 7.18 0c21.49,-37.61 44.79,-66.28 71.62,-89.54 26.87,-23.3 55.53,-39.41 87.77,-50.16 34.04,-10.75 71.65,-16.12 112.84,-16.12 62.67,0 112.84,12.55 150.45,37.61 37.61,26.87 66.24,60.91 84.17,103.89 17.89,41.18 26.87,87.74 26.87,139.66 0,34.04 -1.8,68.08 -5.37,102.09 -5.37,34.04 -10.75,68.05 -16.12,98.52l-111.03 526.53 -338.51 0 112.84 -540.88c3.57,-16.12 7.18,-34.01 10.75,-57.3 3.57,-23.26 5.37,-46.55 5.37,-66.24 0,-25.1 -7.18,-44.79 -19.69,-57.34 -12.55,-12.51 -28.67,-17.89 -46.59,-17.89 -21.49,0 -42.98,8.94 -62.67,28.63 -19.69,17.92 -39.38,44.79 -55.5,82.4 -16.12,37.61 -30.47,85.97 -42.98,145.07l-102.09 483.54 -338.51 0z"/>
  <path class="fil0" d="M17780.46 7719.4c-50.13,0 -96.68,-12.55 -139.66,-35.84 -42.98,-23.26 -77.03,-62.67 -102.09,-118.17 -26.87,-55.53 -39.41,-128.95 -39.41,-223.87 0,-48.36 5.37,-100.32 17.92,-159.43 10.75,-59.07 26.87,-116.41 50.13,-173.71 23.3,-57.3 51.96,-109.23 85.97,-157.59 35.84,-48.36 77.03,-85.97 125.38,-114.64 48.36,-28.67 102.09,-42.98 161.19,-42.98 37.61,0 71.62,5.37 100.29,17.92 26.87,10.75 51.93,26.87 73.42,48.36 21.49,19.69 39.41,44.75 55.53,73.42l7.14 0 46.55 -121.78 270.46 0 -209.55 990.38 -270.42 0 8.94 -107.46 -7.18 0c-16.12,23.3 -35.81,44.79 -59.07,64.48 -21.49,19.69 -46.59,34.04 -75.22,44.79 -26.87,10.75 -60.91,16.12 -100.32,16.12zm139.7 -272.23c26.87,0 50.16,-10.75 69.85,-34.04 21.49,-23.3 39.41,-53.73 55.53,-91.34 16.12,-37.61 26.87,-78.79 34.01,-121.78 1.8,-17.92 5.37,-35.81 7.18,-53.73 1.8,-19.69 3.57,-37.61 3.57,-55.5 0,-37.61 -5.37,-68.08 -17.89,-91.34 -12.55,-23.3 -30.47,-34.04 -53.73,-34.04 -19.73,0 -37.61,7.18 -53.73,21.49 -16.12,12.55 -32.24,32.24 -48.36,55.53 -14.32,23.26 -26.87,50.13 -37.61,80.6 -10.75,30.44 -19.69,60.87 -25.06,94.91 -5.37,34.01 -8.98,69.85 -8.98,103.86 0,41.22 5.37,71.65 17.92,93.15 12.55,21.49 32.24,32.24 57.3,32.24z"/>
  <path class="fil0" d="M18871.16 7719.4c-85.97,0 -152.25,-17.92 -197,-55.53 -44.79,-37.61 -66.28,-98.48 -66.28,-182.69 0,-23.26 1.8,-51.93 7.18,-82.36 5.37,-30.47 8.94,-59.1 14.32,-82.4l73.42 -351.02 -134.29 0 35.81 -166.57 189.83 -76.99 120.01 -209.55 225.63 0 -42.98 198.81 252.54 0 -55.5 254.3 -252.54 0 -73.42 334.9c-3.61,16.12 -7.18,34.04 -8.98,51.96 -3.57,16.08 -5.37,30.44 -5.37,39.38 0,19.69 5.37,34.04 16.12,42.98 10.75,8.94 23.3,12.55 39.41,12.55 23.3,0 48.36,-3.61 75.22,-10.75 26.87,-8.98 55.5,-17.92 84.17,-30.47l0 254.34c-37.61,17.89 -80.6,32.24 -128.95,42.98 -48.36,10.75 -103.86,16.12 -168.33,16.12z"/>
  <path class="fil0" d="M19351.1 7701.47l209.55 -990.38 340.27 0 -211.32 990.38 -338.51 0zm417.3 -1085.3c-48.36,0 -87.77,-8.98 -119.98,-26.87 -30.47,-19.73 -46.59,-51.96 -46.59,-96.72 0,-39.41 7.18,-71.65 23.3,-98.52 16.12,-26.87 37.61,-48.36 68.05,-62.67 30.44,-14.32 64.48,-21.49 105.66,-21.49 44.79,0 84.2,8.94 116.41,28.67 34.04,17.89 50.16,50.13 50.16,94.91 0,55.5 -16.12,98.48 -48.36,132.52 -32.24,34.04 -82.36,50.16 -148.64,50.16z"/>
  <path class="fil0" d="M20368.39 7719.4c-80.6,0 -150.45,-14.35 -207.75,-44.79 -55.53,-30.44 -98.52,-73.42 -128.95,-128.95 -30.44,-57.3 -44.79,-127.15 -44.79,-207.75 0,-68.05 7.18,-134.33 23.3,-197 16.12,-62.67 37.61,-121.78 68.05,-175.51 30.44,-55.5 66.28,-102.09 111.03,-143.27 44.79,-41.18 98.52,-71.65 157.62,-94.91 59.1,-23.3 125.35,-34.04 198.77,-34.04 80.6,0 150.45,14.32 207.75,44.79 55.53,30.44 98.52,73.42 128.95,130.72 30.47,55.53 44.79,125.38 44.79,205.98 0,68.05 -7.18,134.29 -23.3,197 -16.12,62.67 -37.61,121.78 -68.05,177.28 -30.44,53.73 -68.05,100.32 -112.84,141.5 -44.75,41.18 -96.72,71.62 -155.82,94.91 -59.1,23.3 -125.35,34.04 -198.77,34.04zm37.61 -254.34c19.69,0 39.38,-7.14 57.3,-23.26 17.89,-14.35 34.01,-34.04 48.36,-60.91 14.32,-26.87 26.87,-57.3 35.81,-91.34 10.75,-34.01 19.69,-71.62 25.06,-109.23 5.37,-37.61 8.98,-77.03 8.98,-116.41 0,-26.87 -3.61,-48.36 -8.98,-64.48 -5.37,-16.12 -14.32,-28.67 -25.06,-37.61 -12.55,-8.98 -25.06,-14.35 -41.18,-14.35 -19.73,0 -39.41,7.18 -57.3,23.3 -16.12,14.32 -32.24,34.04 -46.59,60.91 -14.32,26.87 -26.87,57.3 -37.61,91.34 -10.75,34.01 -19.69,71.62 -25.06,109.23 -5.37,37.61 -7.18,77.03 -7.18,116.41 0,37.61 7.18,68.05 19.73,87.77 12.51,19.69 30.44,28.63 53.73,28.63z"/>
  <path class="fil0" d="M21020.26 7701.47l209.55 -990.38 270.42 0 -10.75 137.9 7.18 0c21.49,-37.61 44.79,-66.28 71.62,-89.54 26.87,-23.3 55.53,-39.41 87.77,-50.16 34.04,-10.75 71.65,-16.12 112.84,-16.12 62.67,0 112.84,12.55 150.45,37.61 37.61,26.87 66.24,60.91 84.17,103.89 17.89,41.18 26.87,87.74 26.87,139.66 0,34.04 -1.8,68.08 -5.37,102.09 -5.37,34.04 -10.75,68.05 -16.12,98.52l-111.03 526.53 -338.51 0 112.84 -540.88c3.57,-16.12 7.18,-34.01 10.75,-57.3 3.57,-23.26 5.37,-46.55 5.37,-66.24 0,-25.1 -7.18,-44.79 -19.69,-57.34 -12.55,-12.51 -28.67,-17.89 -46.59,-17.89 -21.49,0 -42.98,8.94 -62.67,28.63 -19.69,17.92 -39.38,44.79 -55.5,82.4 -16.12,37.61 -30.47,85.97 -42.98,145.07l-102.09 483.54 -338.51 0z"/>
  <path class="fil0" d="M22469.13 7719.4c-50.13,0 -96.68,-12.55 -139.66,-35.84 -42.98,-23.26 -77.03,-62.67 -102.09,-118.17 -26.87,-55.53 -39.41,-128.95 -39.41,-223.87 0,-48.36 5.37,-100.32 17.92,-159.43 10.75,-59.07 26.87,-116.41 50.13,-173.71 23.3,-57.3 51.96,-109.23 85.97,-157.59 35.84,-48.36 77.03,-85.97 125.38,-114.64 48.36,-28.67 102.09,-42.98 161.19,-42.98 37.61,0 71.62,5.37 100.29,17.92 26.87,10.75 51.93,26.87 73.42,48.36 21.49,19.69 39.41,44.75 55.53,73.42l7.14 0 46.55 -121.78 270.46 0 -209.55 990.38 -270.42 0 8.94 -107.46 -7.18 0c-16.12,23.3 -35.81,44.79 -59.07,64.48 -21.49,19.69 -46.59,34.04 -75.22,44.79 -26.87,10.75 -60.91,16.12 -100.32,16.12zm139.7 -272.23c26.87,0 50.16,-10.75 69.85,-34.04 21.49,-23.3 39.41,-53.73 55.53,-91.34 16.12,-37.61 26.87,-78.79 34.01,-121.78 1.8,-17.92 5.37,-35.81 7.18,-53.73 1.8,-19.69 3.57,-37.61 3.57,-55.5 0,-37.61 -5.37,-68.08 -17.89,-91.34 -12.55,-23.3 -30.47,-34.04 -53.73,-34.04 -19.73,0 -37.61,7.18 -53.73,21.49 -16.12,12.55 -32.24,32.24 -48.36,55.53 -14.32,23.26 -26.87,50.13 -37.61,80.6 -10.75,30.44 -19.69,60.87 -25.06,94.91 -5.37,34.01 -8.98,69.85 -8.98,103.86 0,41.22 5.37,71.65 17.92,93.15 12.55,21.49 32.24,32.24 57.3,32.24z"/>
  <polygon class="fil0" points="23221.33,7701.47 23509.67,6340.34 23848.18,6340.34 23559.84,7701.47 "/>
  <path class="fil0" d="M24813.5 7719.4c-105.66,0 -195.2,-21.49 -265.05,-62.71 -69.85,-41.18 -123.58,-100.29 -157.62,-175.51 -34.01,-73.42 -50.13,-161.16 -50.13,-259.68 0,-77.03 8.94,-154.02 25.06,-231.04 16.12,-76.99 41.18,-152.21 75.22,-222.06 34.04,-69.85 78.79,-132.52 132.52,-188.06 53.73,-55.5 118.21,-98.48 191.63,-128.92 73.42,-32.24 159.39,-48.36 254.34,-48.36 84.17,0 161.16,10.75 229.24,30.44 68.05,19.69 132.52,48.36 191.63,84.17l-128.95 266.85c-55.53,-32.24 -105.66,-55.53 -150.45,-71.65 -44.79,-16.12 -93.15,-25.06 -141.47,-25.06 -41.22,0 -80.6,8.94 -114.64,28.67 -34.04,17.89 -66.28,42.98 -93.15,76.99 -26.83,34.04 -48.32,71.65 -68.05,116.44 -19.69,42.95 -34.01,89.54 -42.98,139.66 -8.94,50.16 -14.32,102.09 -14.32,154.02 0,77.03 16.12,136.13 48.36,175.51 34.04,37.61 80.6,57.34 141.47,57.34 51.96,0 103.89,-7.18 154.05,-19.73 48.32,-12.51 105.66,-32.24 168.33,-59.07l0 282.94c-62.67,26.87 -125.38,48.36 -188.06,60.91 -64.48,12.55 -130.72,17.92 -197,17.92z"/>
  <path class="fil0" d="M25832.55 7719.4c-80.6,0 -150.45,-14.35 -207.75,-44.79 -55.53,-30.44 -98.52,-73.42 -128.95,-128.95 -30.44,-57.3 -44.79,-127.15 -44.79,-207.75 0,-68.05 7.18,-134.33 23.3,-197 16.12,-62.67 37.61,-121.78 68.05,-175.51 30.44,-55.5 66.28,-102.09 111.03,-143.27 44.79,-41.18 98.52,-71.65 157.62,-94.91 59.1,-23.3 125.35,-34.04 198.77,-34.04 80.6,0 150.45,14.32 207.75,44.79 55.53,30.44 98.52,73.42 128.95,130.72 30.47,55.53 44.79,125.38 44.79,205.98 0,68.05 -7.18,134.29 -23.3,197 -16.12,62.67 -37.61,121.78 -68.05,177.28 -30.44,53.73 -68.05,100.32 -112.84,141.5 -44.75,41.18 -96.72,71.62 -155.82,94.91 -59.1,23.3 -125.35,34.04 -198.77,34.04zm37.61 -254.34c19.69,0 39.38,-7.14 57.3,-23.26 17.89,-14.35 34.01,-34.04 48.36,-60.91 14.32,-26.87 26.87,-57.3 35.81,-91.34 10.75,-34.01 19.69,-71.62 25.06,-109.23 5.37,-37.61 8.98,-77.03 8.98,-116.41 0,-26.87 -3.61,-48.36 -8.98,-64.48 -5.37,-16.12 -14.32,-28.67 -25.06,-37.61 -12.55,-8.98 -25.06,-14.35 -41.18,-14.35 -19.73,0 -39.41,7.18 -57.3,23.3 -16.12,14.32 -32.24,34.04 -46.59,60.91 -14.32,26.87 -26.87,57.3 -37.61,91.34 -10.75,34.01 -19.69,71.62 -25.06,109.23 -5.37,37.61 -7.18,77.03 -7.18,116.41 0,37.61 7.18,68.05 19.73,87.77 12.51,19.69 30.44,28.63 53.73,28.63z"/>
  <path class="fil0" d="M26393.09 8131.29l300.89 -1420.2 270.42 0 -10.75 111.03 7.18 0c17.92,-28.67 37.61,-51.93 60.91,-71.65 21.46,-19.69 46.55,-34.01 73.42,-42.98 26.87,-8.94 57.3,-14.32 91.34,-14.32 59.1,0 111.03,14.32 155.78,42.98 42.98,28.67 77.03,69.85 100.32,125.38 23.26,53.73 35.81,119.98 35.81,197 0,66.24 -7.18,130.72 -19.69,195.2 -12.55,62.67 -32.24,123.58 -59.1,179.08 -25.1,55.53 -55.53,105.7 -91.34,148.68 -35.84,42.95 -77.03,76.99 -123.58,102.05 -44.79,23.3 -94.91,35.84 -150.45,35.84 -30.44,0 -57.3,-5.37 -82.36,-16.12 -23.3,-10.75 -46.59,-25.1 -66.28,-44.79 -19.69,-19.69 -37.61,-41.18 -53.73,-66.28l-7.18 0c-3.57,46.59 -8.94,93.15 -14.32,137.93 -5.37,46.55 -17.89,109.23 -34.01,186.26l-44.79 214.89 -338.51 0zm573.12 -684.12c19.69,0 37.61,-7.18 53.73,-21.49 16.12,-12.55 32.24,-32.24 44.75,-55.53 14.35,-23.26 26.87,-48.36 35.84,-78.79 10.75,-30.44 17.89,-64.48 23.26,-98.52 5.37,-34.01 8.98,-68.05 8.98,-102.05 0,-41.22 -5.37,-71.65 -17.92,-93.15 -12.55,-21.49 -32.24,-32.24 -57.3,-32.24 -16.12,0 -32.24,5.37 -48.36,16.12 -16.12,8.94 -28.67,23.3 -41.18,42.98 -12.55,17.92 -25.1,37.61 -34.04,60.91 -8.94,23.26 -17.92,48.36 -25.06,75.19 -5.37,26.87 -10.75,55.53 -14.35,82.4 -3.57,26.87 -5.37,53.73 -5.37,78.79 0,37.61 7.18,68.05 21.49,91.34 12.55,23.3 32.24,34.04 55.53,34.04z"/>
  <path class="fil0" d="M27571.53 7701.47l209.55 -990.38 270.42 0 -16.12 164.76 7.18 0c26.87,-46.55 55.53,-82.4 84.17,-109.27 28.67,-26.87 60.91,-46.55 94.91,-57.3 34.04,-10.75 73.46,-16.12 118.21,-16.12 12.55,0 26.87,0 41.18,1.8 14.35,1.77 23.3,3.57 28.67,5.37l-73.42 334.9c-12.55,-5.37 -26.87,-10.75 -46.55,-14.32 -19.73,-3.61 -39.41,-5.37 -60.91,-5.37 -26.87,0 -51.93,3.57 -75.22,12.51 -23.3,8.98 -42.98,21.49 -62.67,41.22 -17.92,19.69 -34.04,44.75 -50.16,76.99 -14.32,32.24 -26.87,71.65 -37.61,120.01l-93.11 435.19 -338.51 0z"/>
  <path class="fil0" d="M28753.58 7719.4c-80.6,0 -150.45,-14.35 -207.75,-44.79 -55.53,-30.44 -98.52,-73.42 -128.95,-128.95 -30.44,-57.3 -44.79,-127.15 -44.79,-207.75 0,-68.05 7.18,-134.33 23.3,-197 16.12,-62.67 37.61,-121.78 68.05,-175.51 30.44,-55.5 66.28,-102.09 111.03,-143.27 44.79,-41.18 98.52,-71.65 157.62,-94.91 59.1,-23.3 125.35,-34.04 198.77,-34.04 80.6,0 150.45,14.32 207.75,44.79 55.53,30.44 98.52,73.42 128.95,130.72 30.47,55.53 44.79,125.38 44.79,205.98 0,68.05 -7.18,134.29 -23.3,197 -16.12,62.67 -37.61,121.78 -68.05,177.28 -30.44,53.73 -68.05,100.32 -112.84,141.5 -44.75,41.18 -96.72,71.62 -155.82,94.91 -59.1,23.3 -125.35,34.04 -198.77,34.04zm37.61 -254.34c19.69,0 39.38,-7.14 57.3,-23.26 17.89,-14.35 34.01,-34.04 48.36,-60.91 14.32,-26.87 26.87,-57.3 35.81,-91.34 10.75,-34.01 19.69,-71.62 25.06,-109.23 5.37,-37.61 8.98,-77.03 8.98,-116.41 0,-26.87 -3.61,-48.36 -8.98,-64.48 -5.37,-16.12 -14.32,-28.67 -25.06,-37.61 -12.55,-8.98 -25.06,-14.35 -41.18,-14.35 -19.73,0 -39.41,7.18 -57.3,23.3 -16.12,14.32 -32.24,34.04 -46.59,60.91 -14.32,26.87 -26.87,57.3 -37.61,91.34 -10.75,34.01 -19.69,71.62 -25.06,109.23 -5.37,37.61 -7.18,77.03 -7.18,116.41 0,37.61 7.18,68.05 19.73,87.77 12.51,19.69 30.44,28.63 53.73,28.63z"/>
  <path class="fil0" d="M29740.36 7719.4c-50.13,0 -96.68,-12.55 -139.66,-35.84 -42.98,-23.26 -77.03,-62.67 -102.09,-118.17 -26.87,-55.53 -39.41,-128.95 -39.41,-223.87 0,-48.36 5.37,-100.32 17.92,-159.43 10.75,-59.07 26.87,-116.41 50.13,-173.71 23.3,-57.3 51.96,-109.23 85.97,-157.59 34.04,-48.36 75.22,-85.97 123.58,-114.64 48.36,-28.67 102.09,-42.98 161.19,-42.98 35.81,0 66.24,5.37 89.54,16.12 25.06,10.75 46.55,26.87 64.48,46.55 17.92,19.73 35.81,42.98 53.73,69.85l7.18 0c0,-7.14 0,-23.26 1.77,-48.36 1.8,-25.06 3.61,-53.73 7.18,-84.17 3.57,-32.24 8.94,-62.67 14.32,-89.54l53.73 -263.28 342.08 0 -288.35 1361.13 -270.42 0 8.94 -107.46 -7.18 0c-16.12,23.3 -34.01,42.98 -55.5,62.67 -19.69,19.73 -44.79,34.04 -73.42,44.79 -28.67,12.55 -64.48,17.92 -105.7,17.92zm139.7 -272.23c17.92,0 34.04,-5.37 48.36,-16.12 16.12,-10.75 28.67,-25.1 41.18,-42.98 12.55,-19.73 25.1,-41.18 34.04,-64.48 10.75,-23.3 19.69,-48.36 25.06,-75.22 7.18,-26.87 12.55,-55.53 16.12,-82.4 3.61,-26.83 5.37,-51.93 5.37,-75.19 0,-37.61 -5.37,-68.08 -16.12,-91.34 -12.51,-23.3 -30.44,-34.04 -53.73,-34.04 -19.69,0 -37.58,7.18 -53.7,21.49 -17.92,12.55 -34.04,32.24 -48.36,55.53 -14.35,23.26 -26.87,50.13 -39.41,80.6 -10.75,30.44 -19.69,60.87 -25.06,94.91 -5.37,34.01 -8.98,69.85 -8.98,103.86 0,41.22 5.37,71.65 17.92,93.15 12.55,21.49 32.24,32.24 57.3,32.24z"/>
  <path class="fil0" d="M30813.14 7719.4c-60.87,0 -111.03,-12.55 -150.45,-37.61 -37.61,-26.87 -66.24,-60.91 -84.17,-103.89 -17.89,-42.98 -26.87,-89.54 -26.87,-139.7 0,-34.01 1.8,-68.05 7.18,-102.05 3.57,-34.04 8.94,-68.08 14.32,-98.52l111.03 -526.53 338.51 0 -112.84 539.08c-3.57,16.12 -7.18,35.81 -10.75,59.1 -3.57,23.26 -5.37,44.75 -5.37,64.44 0,25.1 7.18,42.98 19.69,55.53 12.55,12.55 28.67,19.69 46.59,19.69 19.69,0 39.38,-8.94 59.1,-26.87 19.69,-17.89 39.38,-46.55 57.3,-84.17 17.89,-37.61 32.24,-85.97 44.75,-145.07l102.09 -481.74 338.51 0 -209.55 990.38 -270.42 0 10.75 -137.9 -7.18 0c-21.49,37.61 -44.79,66.24 -71.62,89.54 -26.87,23.3 -55.53,39.41 -89.58,50.16 -32.24,10.75 -69.85,16.12 -111.03,16.12z"/>
  <path class="fil0" d="M32023.82 7719.4c-66.28,0 -128.95,-14.35 -184.45,-41.22 -55.53,-26.87 -100.32,-71.62 -134.33,-130.72 -34.04,-59.1 -50.16,-137.9 -50.16,-232.81 0,-69.85 7.18,-136.13 23.3,-198.81 16.12,-62.67 41.18,-118.21 71.62,-170.14 30.47,-51.93 66.28,-98.52 109.27,-136.13 42.98,-37.61 91.34,-66.24 146.84,-85.97 55.53,-19.69 114.64,-30.44 179.12,-30.44 62.67,0 118.21,5.37 168.33,17.92 51.93,10.75 102.09,28.63 152.25,51.93l-107.46 250.73c-30.47,-12.55 -62.67,-25.06 -96.72,-35.81 -34.04,-10.75 -68.05,-16.12 -100.29,-16.12 -34.04,0 -64.48,10.75 -91.34,32.24 -26.87,23.26 -48.36,51.93 -64.48,85.97 -16.12,34.01 -28.67,69.81 -37.61,107.43 -8.94,37.61 -12.55,73.46 -12.55,105.7 0,37.61 5.37,68.05 14.35,91.31 8.94,23.3 21.49,39.41 37.61,48.36 16.12,8.98 34.01,14.35 57.3,14.35 41.18,0 82.36,-7.18 121.78,-21.49 39.41,-12.55 80.6,-30.47 125.38,-53.73l0 268.62c-46.59,25.1 -94.95,44.79 -146.88,59.1 -51.93,12.55 -111.03,19.73 -180.88,19.73z"/>
  <path class="fil0" d="M32842.3 7719.4c-85.97,0 -152.25,-17.92 -197,-55.53 -44.79,-37.61 -66.28,-98.48 -66.28,-182.69 0,-23.26 1.8,-51.93 7.18,-82.36 5.37,-30.47 8.94,-59.1 14.32,-82.4l73.42 -351.02 -134.29 0 35.81 -166.57 189.83 -76.99 120.01 -209.55 225.63 0 -42.98 198.81 252.54 0 -55.5 254.3 -252.54 0 -73.42 334.9c-3.61,16.12 -7.18,34.04 -8.98,51.96 -3.57,16.08 -5.37,30.44 -5.37,39.38 0,19.69 5.37,34.04 16.12,42.98 10.75,8.94 23.3,12.55 39.41,12.55 23.3,0 48.36,-3.61 75.22,-10.75 26.87,-8.98 55.5,-17.92 84.17,-30.47l0 254.34c-37.61,17.89 -80.6,32.24 -128.95,42.98 -48.36,10.75 -103.86,16.12 -168.33,16.12z"/>
  <path class="fil0" d="M33322.24 7701.47l209.55 -990.38 340.27 0 -211.32 990.38 -338.51 0zm417.3 -1085.3c-48.36,0 -87.77,-8.98 -119.98,-26.87 -30.47,-19.73 -46.59,-51.96 -46.59,-96.72 0,-39.41 7.18,-71.65 23.3,-98.52 16.12,-26.87 37.61,-48.36 68.05,-62.67 30.44,-14.32 64.48,-21.49 105.66,-21.49 44.79,0 84.2,8.94 116.41,28.67 34.04,17.89 50.16,50.13 50.16,94.91 0,55.5 -16.12,98.48 -48.36,132.52 -32.24,34.04 -82.36,50.16 -148.64,50.16z"/>
  <path class="fil0" d="M34339.52 7719.4c-80.6,0 -150.45,-14.35 -207.75,-44.79 -55.53,-30.44 -98.52,-73.42 -128.95,-128.95 -30.44,-57.3 -44.79,-127.15 -44.79,-207.75 0,-68.05 7.18,-134.33 23.3,-197 16.12,-62.67 37.61,-121.78 68.05,-175.51 30.44,-55.5 66.28,-102.09 111.03,-143.27 44.79,-41.18 98.52,-71.65 157.62,-94.91 59.1,-23.3 125.35,-34.04 198.77,-34.04 80.6,0 150.45,14.32 207.75,44.79 55.53,30.44 98.52,73.42 128.95,130.72 30.47,55.53 44.79,125.38 44.79,205.98 0,68.05 -7.18,134.29 -23.3,197 -16.12,62.67 -37.61,121.78 -68.05,177.28 -30.44,53.73 -68.05,100.32 -112.84,141.5 -44.75,41.18 -96.72,71.62 -155.82,94.91 -59.1,23.3 -125.35,34.04 -198.77,34.04zm37.61 -254.34c19.69,0 39.38,-7.14 57.3,-23.26 17.89,-14.35 34.01,-34.04 48.36,-60.91 14.32,-26.87 26.87,-57.3 35.81,-91.34 10.75,-34.01 19.69,-71.62 25.06,-109.23 5.37,-37.61 8.98,-77.03 8.98,-116.41 0,-26.87 -3.61,-48.36 -8.98,-64.48 -5.37,-16.12 -14.32,-28.67 -25.06,-37.61 -12.55,-8.98 -25.06,-14.35 -41.18,-14.35 -19.73,0 -39.41,7.18 -57.3,23.3 -16.12,14.32 -32.24,34.04 -46.59,60.91 -14.32,26.87 -26.87,57.3 -37.61,91.34 -10.75,34.01 -19.69,71.62 -25.06,109.23 -5.37,37.61 -7.18,77.03 -7.18,116.41 0,37.61 7.18,68.05 19.73,87.77 12.51,19.69 30.44,28.63 53.73,28.63z"/>
  <path class="fil0" d="M34991.4 7701.47l209.55 -990.38 270.42 0 -10.75 137.9 7.18 0c21.49,-37.61 44.79,-66.28 71.62,-89.54 26.87,-23.3 55.53,-39.41 87.77,-50.16 34.04,-10.75 71.65,-16.12 112.84,-16.12 62.67,0 112.84,12.55 150.45,37.61 37.61,26.87 66.24,60.91 84.17,103.89 17.89,41.18 26.87,87.74 26.87,139.66 0,34.04 -1.8,68.08 -5.37,102.09 -5.37,34.04 -10.75,68.05 -16.12,98.52l-111.03 526.53 -338.51 0 112.84 -540.88c3.57,-16.12 7.18,-34.01 10.75,-57.3 3.57,-23.26 5.37,-46.55 5.37,-66.24 0,-25.1 -7.18,-44.79 -19.69,-57.34 -12.55,-12.51 -28.67,-17.89 -46.59,-17.89 -21.49,0 -42.98,8.94 -62.67,28.63 -19.69,17.92 -39.38,44.79 -55.5,82.4 -16.12,37.61 -30.47,85.97 -42.98,145.07l-102.09 483.54 -338.51 0z"/>
  <polygon class="fil0" points="36580,7701.47 36850.43,6422.74 37604.39,6422.74 37545.33,6700.34 37133.4,6700.34 37083.24,6943.9 37464.73,6943.9 37403.82,7223.3 37020.56,7223.3 36922.04,7701.47 "/>
  <path class="fil0" d="M37916.03 7719.4c-60.87,0 -111.03,-12.55 -150.45,-37.61 -37.61,-26.87 -66.24,-60.91 -84.17,-103.89 -17.89,-42.98 -26.87,-89.54 -26.87,-139.7 0,-34.01 1.8,-68.05 7.18,-102.05 3.57,-34.04 8.94,-68.08 14.32,-98.52l111.03 -526.53 338.51 0 -112.84 539.08c-3.57,16.12 -7.18,35.81 -10.75,59.1 -3.57,23.26 -5.37,44.75 -5.37,64.44 0,25.1 7.18,42.98 19.69,55.53 12.55,12.55 28.67,19.69 46.59,19.69 19.69,0 39.38,-8.94 59.1,-26.87 19.69,-17.89 39.38,-46.55 57.3,-84.17 17.89,-37.61 32.24,-85.97 44.75,-145.07l102.09 -481.74 338.51 0 -209.55 990.38 -270.42 0 10.75 -137.9 -7.18 0c-21.49,37.61 -44.79,66.24 -71.62,89.54 -26.87,23.3 -55.53,39.41 -89.58,50.16 -32.24,10.75 -69.85,16.12 -111.03,16.12z"/>
  <path class="fil0" d="M38704.04 7701.47l209.55 -990.38 270.42 0 -10.75 137.9 7.18 0c21.49,-37.61 44.79,-66.28 71.62,-89.54 26.87,-23.3 55.53,-39.41 87.77,-50.16 34.04,-10.75 71.65,-16.12 112.84,-16.12 62.67,0 112.84,12.55 150.45,37.61 37.61,26.87 66.24,60.91 84.17,103.89 17.89,41.18 26.87,87.74 26.87,139.66 0,34.04 -1.8,68.08 -5.37,102.09 -5.37,34.04 -10.75,68.05 -16.12,98.52l-111.03 526.53 -338.51 0 112.84 -540.88c3.57,-16.12 7.18,-34.01 10.75,-57.3 3.57,-23.26 5.37,-46.55 5.37,-66.24 0,-25.1 -7.18,-44.79 -19.69,-57.34 -12.55,-12.51 -28.67,-17.89 -46.59,-17.89 -21.49,0 -42.98,8.94 -62.67,28.63 -19.69,17.92 -39.38,44.79 -55.5,82.4 -16.12,37.61 -30.47,85.97 -42.98,145.07l-102.09 483.54 -338.51 0z"/>
  <path class="fil0" d="M40152.91 7719.4c-50.13,0 -96.68,-12.55 -139.66,-35.84 -42.98,-23.26 -77.03,-62.67 -102.09,-118.17 -26.87,-55.53 -39.41,-128.95 -39.41,-223.87 0,-48.36 5.37,-100.32 17.92,-159.43 10.75,-59.07 26.87,-116.41 50.13,-173.71 23.3,-57.3 51.96,-109.23 85.97,-157.59 34.04,-48.36 75.22,-85.97 123.58,-114.64 48.36,-28.67 102.09,-42.98 161.19,-42.98 35.81,0 66.24,5.37 89.54,16.12 25.06,10.75 46.55,26.87 64.48,46.55 17.92,19.73 35.81,42.98 53.73,69.85l7.18 0c0,-7.14 0,-23.26 1.77,-48.36 1.8,-25.06 3.61,-53.73 7.18,-84.17 3.57,-32.24 8.94,-62.67 14.32,-89.54l53.73 -263.28 342.08 0 -288.35 1361.13 -270.42 0 8.94 -107.46 -7.18 0c-16.12,23.3 -34.01,42.98 -55.5,62.67 -19.69,19.73 -44.79,34.04 -73.42,44.79 -28.67,12.55 -64.48,17.92 -105.7,17.92zm139.7 -272.23c17.92,0 34.04,-5.37 48.36,-16.12 16.12,-10.75 28.67,-25.1 41.18,-42.98 12.55,-19.73 25.1,-41.18 34.04,-64.48 10.75,-23.3 19.69,-48.36 25.06,-75.22 7.18,-26.87 12.55,-55.53 16.12,-82.4 3.61,-26.83 5.37,-51.93 5.37,-75.19 0,-37.61 -5.37,-68.08 -16.12,-91.34 -12.51,-23.3 -30.44,-34.04 -53.73,-34.04 -19.69,0 -37.58,7.18 -53.7,21.49 -17.92,12.55 -34.04,32.24 -48.36,55.53 -14.35,23.26 -26.87,50.13 -39.41,80.6 -10.75,30.44 -19.69,60.87 -25.06,94.91 -5.37,34.01 -8.98,69.85 -8.98,103.86 0,41.22 5.37,71.65 17.92,93.15 12.55,21.49 32.24,32.24 57.3,32.24z"/>
  <path class="fil0" d="M41537.33 7984.44c-26.87,-48.36 -51.93,-105.66 -71.65,-170.14 -19.69,-66.28 -35.81,-132.52 -44.75,-200.61 -10.75,-69.81 -16.12,-134.29 -16.12,-197 0,-102.05 8.94,-198.77 28.67,-290.11 19.69,-91.34 48.32,-180.88 85.93,-265.05 37.61,-84.2 84.2,-166.57 139.7,-243.59 55.53,-78.79 120.01,-155.78 193.43,-231.01l282.97 0c-62.67,69.85 -121.78,141.47 -175.51,218.49 -55.53,76.99 -102.09,157.59 -143.27,243.56 -39.41,85.97 -69.85,177.31 -93.15,274.03 -21.49,96.68 -32.24,198.77 -32.24,308.03 0,55.5 3.57,114.6 12.55,179.08 8.94,66.28 19.69,130.76 34.01,195.24 16.12,64.44 34.04,123.55 55.53,179.08l-256.11 0z"/>
  <polygon class="fil0" points="41951.02,7701.47 41992.21,7506.27 42160.58,7436.42 42318.16,6694.97 42178.46,6619.75 42219.68,6422.74 42876.93,6422.74 42835.75,6619.75 42660.24,6694.97 42502.65,7436.42 42644.12,7506.27 42602.94,7701.47 "/>
  <polygon class="fil0" points="42807.12,7701.47 43077.54,6422.74 43419.62,6422.74 43301.41,6968.96 43428.56,6789.88 43707.96,6422.74 44109.1,6422.74 43627.36,7011.95 43863.74,7701.47 43480.49,7701.47 43328.27,7196.44 43244.11,7244.79 43149.16,7701.47 "/>
  <polygon class="fil0" points="44005.25,7701.47 44275.67,6422.74 45029.64,6422.74 44970.57,6700.34 44558.64,6700.34 44508.48,6943.9 44889.97,6943.9 44829.07,7223.3 44445.81,7223.3 44347.29,7701.47 "/>
  <path class="fil0" d="M44879.23 7984.44c62.67,-69.85 121.78,-141.5 173.71,-218.49 53.73,-77.03 100.29,-157.62 139.7,-243.56 39.41,-85.97 69.85,-177.31 91.34,-274.03 21.49,-96.72 32.24,-198.81 32.24,-308.03 0,-55.53 -3.57,-116.41 -12.55,-180.88 -8.94,-64.48 -19.69,-128.95 -35.81,-193.43 -16.12,-64.48 -34.04,-123.58 -55.53,-179.08l257.91 0c30.44,51.93 55.53,111.03 75.22,175.51 19.69,64.48 34.01,130.72 42.98,198.77 8.94,66.28 14.32,130.76 14.32,193.43 0,102.09 -8.94,198.81 -28.67,290.15 -17.89,91.34 -44.75,180.88 -82.36,265.05 -37.61,84.17 -82.4,166.57 -137.9,245.36 -53.73,76.99 -116.41,154.02 -189.86,229.24l-284.74 0z"/>
  <polygon class="fil0" points="46279.73,6340.34 46245.69,6648.42 46557.33,6560.64 46589.57,6818.55 46315.54,6836.44 46496.43,7080.03 46268.99,7200.01 46143.6,6952.84 46036.14,7198.2 45797.96,7080.03 45978.84,6836.44 45704.85,6814.95 45744.23,6560.64 46048.69,6648.42 46014.65,6340.34 "/>
  <polygon class="fil0" points="47130.45,7357.63 47130.45,7085.4 47624.74,7085.4 47624.74,7357.63 "/>
  <path class="fil0" d="M49109.45 7701.47l-927.71 0 0 -227.44 311.6 -315.21c64.48,-68.05 114.64,-121.78 152.25,-163 35.81,-41.18 60.87,-75.22 75.22,-103.86 14.32,-28.67 21.49,-59.1 21.49,-89.54 0,-37.61 -12.55,-66.28 -35.84,-82.4 -25.06,-16.12 -53.7,-25.06 -87.74,-25.06 -41.18,0 -80.6,10.75 -121.78,34.01 -41.18,23.3 -87.77,57.34 -139.7,102.09l-189.83 -222.06c37.61,-34.04 78.79,-68.05 121.78,-98.52 44.75,-30.44 94.91,-57.3 154.02,-76.99 59.1,-19.69 130.72,-28.67 214.92,-28.67 87.74,0 162.96,16.12 225.63,46.59 62.67,30.44 112.84,71.62 146.88,123.55 35.81,51.96 53.73,112.84 53.73,179.12 0,73.42 -14.35,139.7 -41.22,198.77 -26.87,57.34 -66.24,114.64 -121.78,171.94 -53.73,59.1 -121.78,125.38 -202.38,198.81l-93.11 84.17 0 8.94 483.54 0 0 284.77z"/>
  <path class="fil0" d="M50164.31 7063.91c0,102.05 -8.94,195.2 -25.06,275.8 -16.12,80.6 -41.22,148.64 -78.83,205.95 -35.81,55.53 -82.36,98.52 -141.47,128.95 -59.1,30.44 -130.76,44.79 -216.69,44.79 -105.7,0 -193.43,-26.87 -263.28,-78.83 -68.05,-51.93 -118.21,-127.15 -150.45,-225.63 -32.24,-98.52 -48.36,-214.92 -48.36,-351.02 0,-137.93 14.35,-256.11 42.98,-354.63 30.44,-98.48 78.79,-173.71 146.88,-225.67 68.05,-51.93 159.39,-78.79 272.23,-78.79 105.66,0 193.4,26.87 261.44,78.79 68.08,51.96 118.21,125.38 150.45,223.87 34.04,98.52 50.16,218.49 50.16,356.43zm-580.26 0c0,84.17 3.57,154.02 8.94,209.52 7.18,55.53 19.69,98.52 35.81,127.15 16.12,28.67 41.22,42.98 73.46,42.98 32.24,0 57.3,-14.32 73.42,-41.18 16.12,-28.67 28.63,-71.62 34.01,-127.15 7.18,-57.3 10.75,-127.15 10.75,-211.32 0,-84.2 -3.57,-155.82 -10.75,-211.35 -5.37,-57.3 -17.89,-100.29 -34.01,-128.95 -16.12,-28.63 -41.18,-42.95 -73.42,-42.95 -32.24,0 -57.34,14.32 -73.46,42.95 -16.12,28.67 -28.63,71.65 -35.81,128.95 -5.37,55.53 -8.94,127.15 -8.94,211.35z"/>
  <path class="fil0" d="M51208.43 7701.47l-927.71 0 0 -227.44 311.6 -315.21c64.48,-68.05 114.64,-121.78 152.25,-163 35.81,-41.18 60.87,-75.22 75.22,-103.86 14.32,-28.67 21.49,-59.1 21.49,-89.54 0,-37.61 -12.55,-66.28 -35.84,-82.4 -25.06,-16.12 -53.7,-25.06 -87.74,-25.06 -41.18,0 -80.6,10.75 -121.78,34.01 -41.18,23.3 -87.77,57.34 -139.7,102.09l-189.83 -222.06c37.61,-34.04 78.79,-68.05 121.78,-98.52 44.75,-30.44 94.91,-57.3 154.02,-76.99 59.1,-19.69 130.72,-28.67 214.92,-28.67 87.74,0 162.96,16.12 225.63,46.59 62.67,30.44 112.84,71.62 146.88,123.55 35.81,51.96 53.73,112.84 53.73,179.12 0,73.42 -14.35,139.7 -41.22,198.77 -26.87,57.34 -66.24,114.64 -121.78,171.94 -53.73,59.1 -121.78,125.38 -202.38,198.81l-93.11 84.17 0 8.94 483.54 0 0 284.77z"/>
  <path class="fil0" d="M51337.38 7160.59c0,-73.42 5.37,-145.04 16.12,-218.49 10.75,-73.42 30.44,-141.47 57.3,-205.95 26.87,-64.48 66.24,-121.78 116.41,-171.94 50.16,-48.36 114.6,-87.74 191.63,-116.41 78.79,-28.63 175.51,-42.98 288.35,-42.98 25.06,0 55.5,1.8 91.34,5.37 37.61,1.8 68.05,5.37 91.34,8.98l0 270.42c-23.3,-5.37 -50.16,-8.94 -80.6,-12.55 -30.47,-1.77 -66.28,-3.57 -109.27,-3.57 -64.48,0 -118.21,7.18 -162.96,21.49 -44.79,16.12 -78.79,37.61 -105.66,66.24 -26.87,26.87 -46.59,60.91 -59.1,100.32 -12.55,41.18 -21.49,85.93 -23.3,136.09l10.75 0c16.12,-28.67 34.04,-53.73 55.53,-77.03 21.49,-21.46 48.36,-39.38 80.6,-51.93 32.24,-12.51 71.62,-19.69 116.41,-19.69 75.22,0 139.7,16.12 191.63,48.36 53.73,32.24 94.91,78.79 123.58,141.47 28.63,62.71 42.98,137.9 42.98,225.67 0,94.91 -17.92,177.31 -55.53,245.36 -35.81,68.05 -87.77,119.98 -154.02,155.82 -68.05,35.81 -148.64,53.73 -241.79,53.73 -68.05,0 -130.72,-10.75 -189.83,-34.04 -59.1,-21.49 -109.27,-55.53 -154.02,-100.29 -42.98,-46.55 -77.03,-105.66 -102.09,-175.51 -23.3,-69.85 -35.81,-154.02 -35.81,-248.97zm474.6 284.77c37.58,0 66.24,-14.32 89.54,-42.98 23.26,-26.87 34.01,-71.62 34.01,-130.72 0,-48.36 -8.94,-87.77 -28.63,-114.64 -19.73,-26.87 -50.16,-41.18 -91.34,-41.18 -28.67,0 -53.73,7.18 -73.42,21.49 -19.73,12.51 -34.04,30.44 -44.79,51.93 -10.75,19.69 -16.12,41.18 -16.12,64.48 0,23.3 1.8,44.79 7.18,68.05 5.37,23.3 14.32,42.98 23.26,62.67 10.75,17.92 25.1,32.24 41.22,42.98 16.12,12.55 35.81,17.92 59.1,17.92z"/>
  <path class="fil0" d="M894.86 10592.06l-59.43 -227.47 -393.79 0 -61.12 227.47 -359.85 0 395.52 -1217.06 436.23 0 400.6 1217.06 -358.16 0zm-179.95 -694.25c-5.08,-22.07 -13.6,-52.61 -23.76,-91.67 -10.17,-40.75 -20.37,-83.16 -30.54,-125.6 -10.21,-42.44 -18.68,-78.07 -23.76,-105.26 -5.08,27.19 -11.9,61.12 -22.07,101.87 -8.51,40.71 -18.68,81.46 -28.85,120.52 -8.51,39.02 -16.98,72.99 -23.76,100.14l-52.65 198.59 258.02 0 -52.61 -198.59z"/>
  <polygon class="fil0" points="1383.7,10592.06 1383.7,9380.08 1711.32,9380.08 1711.32,10327.27 2178.13,10327.27 2178.13,10592.06 "/>
  <polygon class="fil0" points="3091.34,10592.06 2371.6,10592.06 2371.6,9380.08 3091.34,9380.08 3091.34,9643.19 2699.21,9643.19 2699.21,9833.3 3062.46,9833.3 3062.46,10096.4 2699.21,10096.4 2699.21,10325.57 3091.34,10325.57 "/>
  <polygon class="fil0" points="4394.95,10592.06 4016.42,10592.06 3780.47,10213.53 3546.25,10592.06 3176.19,10592.06 3578.49,9972.5 3199.96,9380.08 3563.2,9380.08 3782.17,9755.23 3992.66,9380.08 4366.1,9380.08 3982.49,9997.96 "/>
  <path class="fil0" d="M5274.23 10592.06l-59.43 -227.47 -393.79 0 -61.12 227.47 -359.85 0 395.52 -1217.06 436.23 0 400.6 1217.06 -358.16 0zm-179.95 -694.25c-5.08,-22.07 -13.6,-52.61 -23.76,-91.67 -10.17,-40.75 -20.37,-83.16 -30.54,-125.6 -10.21,-42.44 -18.68,-78.07 -23.76,-105.26 -5.08,27.19 -11.9,61.12 -22.07,101.87 -8.51,40.71 -18.68,81.46 -28.85,120.52 -8.51,39.02 -16.98,72.99 -23.76,100.14l-52.65 198.59 258.02 0 -52.61 -198.59z"/>
  <path class="fil0" d="M6917.36 10592.06l-429.45 0 -443.05 -853.82 -6.78 0c1.69,25.46 5.08,57.73 6.78,93.36 1.69,37.36 5.08,74.68 6.82,112.04 1.69,37.32 1.69,71.29 1.69,101.84l0 546.58 -290.29 0 0 -1211.98 427.76 0 441.35 841.96 5.08 0c-1.69,-25.5 -3.39,-56.04 -5.08,-91.67 -1.69,-35.66 -3.39,-71.29 -5.08,-106.96 -1.69,-35.63 -1.69,-67.9 -1.69,-95.06l0 -548.27 291.95 0 0 1211.98z"/>
  <path class="fil0" d="M8207.37 9960.63c0,140.85 -27.15,257.98 -79.77,351.34 -52.61,93.36 -125.6,164.66 -220.66,210.49 -95.06,45.83 -207.1,69.6 -336.09,69.6l-392.13 0 0 -1211.98 419.28 0c130.69,0 241.03,22.07 331.01,66.21 89.97,45.83 159.57,110.35 207.1,196.89 47.49,86.58 71.26,191.81 71.26,317.45zm-339.48 11.86c0,-72.99 -10.17,-134.11 -30.54,-183.33 -18.68,-49.22 -49.22,-84.85 -88.28,-108.62 -39.02,-23.76 -88.24,-35.66 -147.67,-35.66l-95.06 0 0 679 72.99 0c100.14,0 173.13,-28.85 218.96,-86.58 45.83,-57.7 69.6,-145.98 69.6,-264.8z"/>
  <path class="fil0" d="M8821.86 9380.08c110.35,0 200.28,13.6 273.31,40.75 72.99,27.15 128.99,67.9 166.31,120.52 35.66,52.61 54.34,117.13 54.34,196.89 0,49.22 -8.51,93.36 -25.46,134.11 -15.29,40.75 -39.05,76.38 -69.6,108.62 -30.58,32.27 -67.9,59.43 -110.35,83.19l353.07 527.9 -371.75 0 -256.29 -441.32 -83.19 0 0 441.32 -327.62 0 0 -1211.98 397.21 0zm-5.08 247.85l-64.51 0 0 276.66 61.12 0c49.22,0 89.94,-11.86 122.21,-33.93 32.24,-22.07 49.22,-61.12 49.22,-117.13 0,-25.46 -5.08,-47.53 -16.98,-66.21 -11.86,-18.68 -28.85,-33.93 -54.31,-44.14 -25.46,-10.17 -57.7,-15.25 -96.75,-15.25z"/>
  <polygon class="fil0" points="10293.55,10592.06 9573.8,10592.06 9573.8,9380.08 10293.55,9380.08 10293.55,9643.19 9901.42,9643.19 9901.42,9833.3 10264.66,9833.3 10264.66,10096.4 9901.42,10096.4 9901.42,10325.57 10293.55,10325.57 "/>
  <polygon class="fil0" points="11269.54,10592.06 10947.01,10592.06 10947.01,9380.08 11663.33,9380.08 11663.33,9643.19 11269.54,9643.19 11269.54,9874.05 11632.79,9874.05 11632.79,10137.15 11269.54,10137.15 "/>
  <path class="fil0" d="M12892.3 10110c0,101.84 -18.68,190.11 -57.73,264.8 -39.02,74.68 -96.75,132.38 -174.82,173.13 -76.38,40.75 -173.13,61.12 -290.26,61.12 -168.04,0 -295.38,-42.44 -383.62,-127.33 -86.58,-86.55 -130.72,-207.06 -130.72,-364.94l0 -736.69 329.31 0 0 711.23c0,86.58 15.29,147.67 47.53,186.72 32.24,39.02 79.77,57.7 142.59,57.7 45.83,0 81.46,-8.47 108.62,-25.46 28.88,-16.95 49.26,-44.14 61.12,-79.77 13.6,-35.66 20.37,-83.19 20.37,-140.89l0 -709.54 327.62 0 0 729.91z"/>
  <path class="fil0" d="M13544.1 9380.08c110.35,0 200.28,13.6 273.31,40.75 72.99,27.15 128.99,67.9 166.31,120.52 35.66,52.61 54.34,117.13 54.34,196.89 0,49.22 -8.51,93.36 -25.46,134.11 -15.29,40.75 -39.05,76.38 -69.6,108.62 -30.58,32.27 -67.9,59.43 -110.35,83.19l353.07 527.9 -371.75 0 -256.29 -441.32 -83.19 0 0 441.32 -327.62 0 0 -1211.98 397.21 0zm-5.08 247.85l-64.51 0 0 276.66 61.12 0c49.22,0 89.94,-11.86 122.21,-33.93 32.24,-22.07 49.22,-61.12 49.22,-117.13 0,-25.46 -5.08,-47.53 -16.98,-66.21 -11.86,-18.68 -28.85,-33.93 -54.31,-44.14 -25.46,-10.17 -57.7,-15.25 -96.75,-15.25z"/>
  <polygon class="fil0" points="14830.76,10592.06 14503.15,10592.06 14503.15,9648.31 14207.81,9648.31 14207.81,9380.08 15126.1,9380.08 15126.1,9648.31 14830.76,9648.31 "/>
  <path class="fil0" d="M15923.92 10592.06l-59.43 -227.47 -393.79 0 -61.12 227.47 -359.85 0 395.52 -1217.06 436.23 0 400.6 1217.06 -358.16 0zm-179.95 -694.25c-5.08,-22.07 -13.6,-52.61 -23.76,-91.67 -10.17,-40.75 -20.37,-83.16 -30.54,-125.6 -10.21,-42.44 -18.68,-78.07 -23.76,-105.26 -5.08,27.19 -11.9,61.12 -22.07,101.87 -8.51,40.71 -18.68,81.46 -28.85,120.52 -8.51,39.02 -16.98,72.99 -23.76,100.14l-52.65 198.59 258.02 0 -52.61 -198.59z"/>
  <path class="fil0" d="M17441.41 9960.63c0,140.85 -27.15,257.98 -79.77,351.34 -52.61,93.36 -125.6,164.66 -220.66,210.49 -95.06,45.83 -207.1,69.6 -336.09,69.6l-392.13 0 0 -1211.98 419.28 0c130.69,0 241.03,22.07 331.01,66.21 89.97,45.83 159.57,110.35 207.1,196.89 47.49,86.58 71.26,191.81 71.26,317.45zm-339.48 11.86c0,-72.99 -10.17,-134.11 -30.54,-183.33 -18.68,-49.22 -49.22,-84.85 -88.28,-108.62 -39.02,-23.76 -88.24,-35.66 -147.67,-35.66l-95.06 0 0 679 72.99 0c100.14,0 173.13,-28.85 218.96,-86.58 45.83,-57.7 69.6,-145.98 69.6,-264.8z"/>
  <path class="fil0" d="M18792.59 9984.4c0,93.33 -11.9,179.91 -33.97,256.29 -22.03,76.38 -57.7,140.89 -105.23,196.93 -47.53,56 -108.62,98.45 -183.33,127.3 -72.99,28.85 -162.92,44.14 -266.49,44.14 -101.84,0 -190.11,-15.29 -264.8,-44.14 -72.99,-28.85 -134.08,-71.29 -181.6,-127.3 -49.22,-56.04 -84.89,-120.55 -106.96,-196.93 -23.76,-76.38 -35.63,-162.96 -35.63,-257.98 0,-125.64 20.34,-234.25 62.78,-327.62 42.44,-93.36 106.96,-166.35 193.5,-217.27 86.58,-50.92 198.62,-76.38 334.4,-76.38 137.5,0 249.54,25.46 336.09,78.07 86.58,50.92 151.1,122.21 190.11,215.57 40.75,93.36 61.12,203.67 61.12,329.31zm-833.45 0c0,72.99 8.47,135.77 23.76,188.38 16.98,52.65 44.14,91.67 79.77,120.55 35.66,28.85 83.19,42.41 140.89,42.41 59.43,0 106.96,-13.56 142.59,-42.41 35.66,-28.88 62.82,-67.9 78.07,-120.55 15.29,-52.61 23.76,-115.4 23.76,-188.38 0,-110.35 -18.64,-196.93 -54.31,-259.71 -35.63,-62.82 -98.45,-95.06 -188.42,-95.06 -59.39,0 -106.92,13.56 -142.59,42.44 -35.63,28.85 -62.78,71.29 -79.77,123.91 -15.29,52.61 -23.76,115.43 -23.76,188.42z"/>
  <polygon class="fil0" points="19357.81,10266.14 19357.81,10008.16 19826.32,10008.16 19826.32,10266.14 "/>
  <path class="fil0" d="M20973.78 9631.32c-39.05,0 -72.99,8.47 -103.53,23.76 -30.58,16.98 -56.04,40.75 -78.11,71.29 -22.03,32.24 -37.32,69.6 -49.22,113.74 -11.86,44.1 -16.95,95.06 -16.95,151.06 0,76.38 10.17,139.2 28.85,191.81 18.68,52.61 49.22,91.67 88.28,118.82 39.02,25.46 89.94,39.02 149.37,39.02 52.61,0 105.23,-6.78 154.45,-22.03 50.92,-15.29 101.87,-32.27 152.79,-54.34l0 276.7c-52.65,23.76 -108.65,40.75 -164.66,50.92 -56.04,11.86 -115.43,16.98 -178.25,16.98 -130.69,0 -239.34,-25.46 -322.49,-78.11 -83.19,-52.61 -145.98,-125.6 -185.03,-218.96 -39.05,-93.36 -59.39,-200.28 -59.39,-322.49 0,-91.67 11.86,-174.86 37.32,-251.24 25.46,-76.38 64.51,-142.59 113.74,-198.59 49.22,-56 112.04,-100.14 185.03,-130.69 72.99,-30.58 156.14,-45.83 251.2,-45.83 59.43,0 120.52,6.78 185.03,20.34 64.51,13.6 127.3,35.66 190.11,64.51l-100.14 258.02c-44.14,-22.07 -88.28,-39.05 -134.11,-52.61 -45.83,-15.29 -93.36,-22.07 -144.28,-22.07z"/>
  <path class="fil0" d="M22279.12 10592.06l-59.43 -227.47 -393.79 0 -61.12 227.47 -359.85 0 395.52 -1217.06 436.23 0 400.6 1217.06 -358.16 0zm-179.95 -694.25c-5.08,-22.07 -13.6,-52.61 -23.76,-91.67 -10.17,-40.75 -20.37,-83.16 -30.54,-125.6 -10.21,-42.44 -18.68,-78.07 -23.76,-105.26 -5.08,27.19 -11.9,61.12 -22.07,101.87 -8.51,40.71 -18.68,81.46 -28.85,120.52 -8.51,39.02 -16.98,72.99 -23.76,100.14l-52.65 198.59 258.02 0 -52.61 -198.59z"/>
  <polygon class="fil0" points="23326.45,10592.06 22694.98,10592.06 22694.98,10405.34 22846.08,10347.64 22846.08,9622.81 22694.98,9566.81 22694.98,9380.08 23326.45,9380.08 23326.45,9566.81 23175.39,9622.81 23175.39,10347.64 23326.45,10405.34 "/>
  <path class="fil0" d="M24648.74 9984.4c0,93.33 -11.9,179.91 -33.97,256.29 -22.03,76.38 -57.7,140.89 -105.23,196.93 -47.53,56 -108.62,98.45 -183.33,127.3 -72.99,28.85 -162.92,44.14 -266.49,44.14 -101.84,0 -190.11,-15.29 -264.8,-44.14 -72.99,-28.85 -134.08,-71.29 -181.6,-127.3 -49.22,-56.04 -84.89,-120.55 -106.96,-196.93 -23.76,-76.38 -35.63,-162.96 -35.63,-257.98 0,-125.64 20.34,-234.25 62.78,-327.62 42.44,-93.36 106.96,-166.35 193.5,-217.27 86.58,-50.92 198.62,-76.38 334.4,-76.38 137.5,0 249.54,25.46 336.09,78.07 86.58,50.92 151.1,122.21 190.11,215.57 40.75,93.36 61.12,203.67 61.12,329.31zm-833.45 0c0,72.99 8.47,135.77 23.76,188.38 16.98,52.65 44.14,91.67 79.77,120.55 35.66,28.85 83.19,42.41 140.89,42.41 59.43,0 106.96,-13.56 142.59,-42.41 35.66,-28.88 62.82,-67.9 78.07,-120.55 15.29,-52.61 23.76,-115.4 23.76,-188.38 0,-110.35 -18.64,-196.93 -54.31,-259.71 -35.63,-62.82 -98.45,-95.06 -188.42,-95.06 -59.39,0 -106.92,13.56 -142.59,42.44 -35.63,28.85 -62.78,71.29 -79.77,123.91 -15.29,52.61 -23.76,115.43 -23.76,188.42z"/>
  <path class="fil0" d="M25706.23 9380.08c110.35,0 200.28,13.6 273.31,40.75 72.99,27.15 128.99,67.9 166.31,120.52 35.66,52.61 54.34,117.13 54.34,196.89 0,49.22 -8.51,93.36 -25.46,134.11 -15.29,40.75 -39.05,76.38 -69.6,108.62 -30.58,32.27 -67.9,59.43 -110.35,83.19l353.07 527.9 -371.75 0 -256.29 -441.32 -83.19 0 0 441.32 -327.62 0 0 -1211.98 397.21 0zm-5.08 247.85l-64.51 0 0 276.66 61.12 0c49.22,0 89.94,-11.86 122.21,-33.93 32.24,-22.07 49.22,-61.12 49.22,-117.13 0,-25.46 -5.08,-47.53 -16.98,-66.21 -11.86,-18.68 -28.85,-33.93 -54.31,-44.14 -25.46,-10.17 -57.7,-15.25 -96.75,-15.25z"/>
  <path class="fil0" d="M27592.09 9984.4c0,93.33 -11.9,179.91 -33.97,256.29 -22.03,76.38 -57.7,140.89 -105.23,196.93 -47.53,56 -108.62,98.45 -183.33,127.3 -72.99,28.85 -162.92,44.14 -266.49,44.14 -101.84,0 -190.11,-15.29 -264.8,-44.14 -72.99,-28.85 -134.08,-71.29 -181.6,-127.3 -49.22,-56.04 -84.89,-120.55 -106.96,-196.93 -23.76,-76.38 -35.63,-162.96 -35.63,-257.98 0,-125.64 20.34,-234.25 62.78,-327.62 42.44,-93.36 106.96,-166.35 193.5,-217.27 86.58,-50.92 198.62,-76.38 334.4,-76.38 137.5,0 249.54,25.46 336.09,78.07 86.58,50.92 151.1,122.21 190.11,215.57 40.75,93.36 61.12,203.67 61.12,329.31zm-833.45 0c0,72.99 8.47,135.77 23.76,188.38 16.98,52.65 44.14,91.67 79.77,120.55 35.66,28.85 83.19,42.41 140.89,42.41 59.43,0 106.96,-13.56 142.59,-42.41 35.66,-28.88 62.82,-67.9 78.07,-120.55 15.29,-52.61 23.76,-115.4 23.76,-188.38 0,-110.35 -18.64,-196.93 -54.31,-259.71 -35.63,-62.82 -98.45,-95.06 -188.42,-95.06 -59.39,0 -106.92,13.56 -142.59,42.44 -35.63,28.85 -62.78,71.29 -79.77,123.91 -15.29,52.61 -23.76,115.43 -23.76,188.42z"/>
  <path class="fil0" d="M28839.69 9960.63c0,140.85 -27.15,257.98 -79.77,351.34 -52.61,93.36 -125.6,164.66 -220.66,210.49 -95.06,45.83 -207.1,69.6 -336.09,69.6l-392.13 0 0 -1211.98 419.28 0c130.69,0 241.03,22.07 331.01,66.21 89.97,45.83 159.57,110.35 207.1,196.89 47.49,86.58 71.26,191.81 71.26,317.45zm-339.48 11.86c0,-72.99 -10.17,-134.11 -30.54,-183.33 -18.68,-49.22 -49.22,-84.85 -88.28,-108.62 -39.02,-23.76 -88.24,-35.66 -147.67,-35.66l-95.06 0 0 679 72.99 0c100.14,0 173.13,-28.85 218.96,-86.58 45.83,-57.7 69.6,-145.98 69.6,-264.8z"/>
  <path class="fil0" d="M29454.18 9380.08c110.35,0 200.28,13.6 273.31,40.75 72.99,27.15 128.99,67.9 166.31,120.52 35.66,52.61 54.34,117.13 54.34,196.89 0,49.22 -8.51,93.36 -25.46,134.11 -15.29,40.75 -39.05,76.38 -69.6,108.62 -30.58,32.27 -67.9,59.43 -110.35,83.19l353.07 527.9 -371.75 0 -256.29 -441.32 -83.19 0 0 441.32 -327.62 0 0 -1211.98 397.21 0zm-5.08 247.85l-64.51 0 0 276.66 61.12 0c49.22,0 89.94,-11.86 122.21,-33.93 32.24,-22.07 49.22,-61.12 49.22,-117.13 0,-25.46 -5.08,-47.53 -16.98,-66.21 -11.86,-18.68 -28.85,-33.93 -54.31,-44.14 -25.46,-10.17 -57.7,-15.25 -96.75,-15.25z"/>
  <polygon class="fil0" points="30764.6,10592.06 30133.13,10592.06 30133.13,10405.34 30284.23,10347.64 30284.23,9622.81 30133.13,9566.81 30133.13,9380.08 30764.6,9380.08 30764.6,9566.81 30613.54,9622.81 30613.54,10347.64 30764.6,10405.34 "/>
  <path class="fil0" d="M31440.17 9882.52l522.81 0 0 653.54c-62.82,22.07 -134.11,39.02 -215.57,52.61 -79.8,13.56 -164.66,20.37 -252.93,20.37 -117.13,0 -218.96,-22.07 -307.24,-67.9 -86.55,-45.83 -156.14,-113.74 -205.37,-207.1 -49.22,-93.36 -72.99,-210.49 -72.99,-351.34 0,-127.33 23.76,-235.95 72.99,-329.31 49.22,-93.36 120.52,-164.66 213.88,-213.88 95.06,-50.92 212.15,-76.38 349.65,-76.38 76.38,0 147.67,6.78 215.57,22.07 67.9,13.56 127.33,32.24 176.56,54.31l-103.57 256.32c-42.41,-22.07 -88.24,-37.36 -135.77,-47.53 -47.53,-11.9 -98.45,-16.98 -151.1,-16.98 -72.99,0 -130.69,16.98 -174.82,49.22 -44.14,32.24 -76.38,76.38 -96.75,130.69 -18.68,54.34 -28.85,113.74 -28.85,179.95 0,74.68 10.17,137.5 32.24,190.11 22.07,52.61 52.61,91.67 93.36,118.82 40.75,25.46 89.97,39.02 149.37,39.02 18.68,0 42.44,-1.69 69.6,-3.39 28.85,-3.39 49.22,-6.78 64.51,-10.17l0 -190.11 -215.57 0 0 -252.93z"/>
  <path class="fil0" d="M33239.48 10110c0,101.84 -18.68,190.11 -57.73,264.8 -39.02,74.68 -96.75,132.38 -174.82,173.13 -76.38,40.75 -173.13,61.12 -290.26,61.12 -168.04,0 -295.38,-42.44 -383.62,-127.33 -86.58,-86.55 -130.72,-207.06 -130.72,-364.94l0 -736.69 329.31 0 0 711.23c0,86.58 15.29,147.67 47.53,186.72 32.24,39.02 79.77,57.7 142.59,57.7 45.83,0 81.46,-8.47 108.62,-25.46 28.88,-16.95 49.26,-44.14 61.12,-79.77 13.6,-35.66 20.37,-83.19 20.37,-140.89l0 -709.54 327.62 0 0 729.91z"/>
  <polygon class="fil0" points="34213.82,10592.06 33494.07,10592.06 33494.07,9380.08 34213.82,9380.08 34213.82,9643.19 33821.69,9643.19 33821.69,9833.3 34184.93,9833.3 34184.93,10096.4 33821.69,10096.4 33821.69,10325.57 34213.82,10325.57 "/>
  <path class="fil0" d="M35218.7 10223.73c0,66.17 -16.98,127.3 -50.95,186.69 -32.24,59.43 -83.16,106.96 -152.76,144.28 -69.6,35.66 -161.27,54.34 -271.58,54.34 -56.04,0 -103.57,-3.39 -145.98,-8.51 -40.75,-5.08 -79.8,-11.86 -115.43,-23.76 -35.66,-11.86 -72.99,-25.46 -112.04,-44.1l0 -291.99c66.21,32.27 132.42,57.73 198.59,76.38 66.21,16.98 127.33,25.5 181.64,25.5 32.24,0 59.43,-3.43 79.77,-11.9 20.37,-8.47 35.66,-18.68 45.83,-32.24 10.21,-13.6 15.29,-28.85 15.29,-45.83 0,-22.07 -6.78,-39.05 -22.07,-54.31 -15.29,-15.29 -37.36,-30.58 -69.6,-45.83 -32.24,-15.29 -74.68,-35.66 -127.3,-59.43 -45.83,-20.37 -86.58,-42.44 -122.21,-64.51 -35.66,-22.03 -67.9,-47.53 -93.36,-76.38 -25.46,-28.85 -44.14,-61.09 -57.73,-100.14 -13.56,-37.36 -20.37,-81.46 -20.37,-134.11 0,-78.07 18.68,-142.59 57.73,-195.2 39.05,-52.61 91.67,-93.36 159.57,-118.82 69.56,-27.15 149.37,-40.71 239.34,-40.71 79.77,0 151.06,8.47 213.88,27.15 62.78,16.95 120.52,37.32 169.74,59.39l-100.18 252.93c-52.61,-23.76 -103.53,-42.44 -152.76,-56.04 -50.92,-15.25 -98.45,-22.03 -140.89,-22.03 -28.85,0 -50.92,3.39 -69.6,10.17 -18.68,6.78 -32.24,15.29 -40.71,27.15 -8.51,11.9 -11.9,25.46 -11.9,40.75 0,18.68 6.78,35.63 22.07,50.92 15.29,15.29 39.05,30.54 72.99,49.22 35.66,16.98 83.16,39.05 142.59,66.21 59.39,25.46 108.65,54.31 149.37,86.55 42.44,30.58 72.99,67.9 95.06,110.35 22.07,42.44 33.97,95.06 33.97,157.88z"/>
  <polygon class="fil0" points="35751.64,10266.14 35751.64,10008.16 36220.15,10008.16 36220.15,10266.14 "/>
  <path class="fil0" d="M37247.1 9380.08c154.45,0 268.19,33.97 344.56,100.14 76.41,66.21 115.43,161.27 115.43,285.17 0,56.04 -8.47,108.65 -23.76,157.88 -15.25,50.92 -42.44,96.75 -78.07,137.5 -35.66,39.02 -81.46,71.29 -140.89,93.36 -59.39,23.76 -130.69,35.63 -217.27,35.63l-91.67 0 0 402.3 -327.62 0 0 -1211.98 419.28 0zm-6.78 264.8l-84.89 0 0 278.39 64.51 0c28.85,0 54.31,-5.08 78.07,-13.6 25.46,-10.17 44.14,-25.46 59.43,-47.53 15.25,-22.03 22.07,-52.61 22.07,-88.24 0,-39.05 -11.9,-69.6 -33.97,-93.36 -22.07,-23.76 -57.7,-35.66 -105.23,-35.66z"/>
  <polygon class="fil0" points="38620.34,10592.06 37900.6,10592.06 37900.6,9380.08 38620.34,9380.08 38620.34,9643.19 38228.22,9643.19 38228.22,9833.3 38591.46,9833.3 38591.46,10096.4 38228.22,10096.4 38228.22,10325.57 38620.34,10325.57 "/>
  <path class="fil0" d="M39861.14 9960.63c0,140.85 -27.15,257.98 -79.77,351.34 -52.61,93.36 -125.6,164.66 -220.66,210.49 -95.06,45.83 -207.1,69.6 -336.09,69.6l-392.13 0 0 -1211.98 419.28 0c130.69,0 241.03,22.07 331.01,66.21 89.97,45.83 159.57,110.35 207.1,196.89 47.49,86.58 71.26,191.81 71.26,317.45zm-339.48 11.86c0,-72.99 -10.17,-134.11 -30.54,-183.33 -18.68,-49.22 -49.22,-84.85 -88.28,-108.62 -39.02,-23.76 -88.24,-35.66 -147.67,-35.66l-95.06 0 0 679 72.99 0c100.14,0 173.13,-28.85 218.96,-86.58 45.83,-57.7 69.6,-145.98 69.6,-264.8z"/>
  <path class="fil0" d="M40475.62 9380.08c110.35,0 200.28,13.6 273.31,40.75 72.99,27.15 128.99,67.9 166.31,120.52 35.66,52.61 54.34,117.13 54.34,196.89 0,49.22 -8.51,93.36 -25.46,134.11 -15.29,40.75 -39.05,76.38 -69.6,108.62 -30.58,32.27 -67.9,59.43 -110.35,83.19l353.07 527.9 -371.75 0 -256.29 -441.32 -83.19 0 0 441.32 -327.62 0 0 -1211.98 397.21 0zm-5.08 247.85l-64.51 0 0 276.66 61.12 0c49.22,0 89.94,-11.86 122.21,-33.93 32.24,-22.07 49.22,-61.12 49.22,-117.13 0,-25.46 -5.08,-47.53 -16.98,-66.21 -11.86,-18.68 -28.85,-33.93 -54.31,-44.14 -25.46,-10.17 -57.7,-15.25 -96.75,-15.25z"/>
  <path class="fil0" d="M42361.47 9984.4c0,93.33 -11.9,179.91 -33.97,256.29 -22.03,76.38 -57.7,140.89 -105.23,196.93 -47.53,56 -108.62,98.45 -183.33,127.3 -72.99,28.85 -162.92,44.14 -266.49,44.14 -101.84,0 -190.11,-15.29 -264.8,-44.14 -72.99,-28.85 -134.08,-71.29 -181.6,-127.3 -49.22,-56.04 -84.89,-120.55 -106.96,-196.93 -23.76,-76.38 -35.63,-162.96 -35.63,-257.98 0,-125.64 20.34,-234.25 62.78,-327.62 42.44,-93.36 106.96,-166.35 193.5,-217.27 86.58,-50.92 198.62,-76.38 334.4,-76.38 137.5,0 249.54,25.46 336.09,78.07 86.58,50.92 151.1,122.21 190.11,215.57 40.75,93.36 61.12,203.67 61.12,329.31zm-833.45 0c0,72.99 8.47,135.77 23.76,188.38 16.98,52.65 44.14,91.67 79.77,120.55 35.66,28.85 83.19,42.41 140.89,42.41 59.43,0 106.96,-13.56 142.59,-42.41 35.66,-28.88 62.82,-67.9 78.07,-120.55 15.29,-52.61 23.76,-115.4 23.76,-188.38 0,-110.35 -18.64,-196.93 -54.31,-259.71 -35.63,-62.82 -98.45,-95.06 -188.42,-95.06 -59.39,0 -106.92,13.56 -142.59,42.44 -35.63,28.85 -62.78,71.29 -79.77,123.91 -15.29,52.61 -23.76,115.43 -23.76,188.42z"/>
  <path class="fil0" d="M43814.48 10223.73c0,66.17 -16.98,127.3 -50.95,186.69 -32.24,59.43 -83.16,106.96 -152.76,144.28 -69.6,35.66 -161.27,54.34 -271.58,54.34 -56.04,0 -103.57,-3.39 -145.98,-8.51 -40.75,-5.08 -79.8,-11.86 -115.43,-23.76 -35.66,-11.86 -72.99,-25.46 -112.04,-44.1l0 -291.99c66.21,32.27 132.42,57.73 198.59,76.38 66.21,16.98 127.33,25.5 181.64,25.5 32.24,0 59.43,-3.43 79.77,-11.9 20.37,-8.47 35.66,-18.68 45.83,-32.24 10.21,-13.6 15.29,-28.85 15.29,-45.83 0,-22.07 -6.78,-39.05 -22.07,-54.31 -15.29,-15.29 -37.36,-30.58 -69.6,-45.83 -32.24,-15.29 -74.68,-35.66 -127.3,-59.43 -45.83,-20.37 -86.58,-42.44 -122.21,-64.51 -35.66,-22.03 -67.9,-47.53 -93.36,-76.38 -25.46,-28.85 -44.14,-61.09 -57.73,-100.14 -13.56,-37.36 -20.37,-81.46 -20.37,-134.11 0,-78.07 18.68,-142.59 57.73,-195.2 39.05,-52.61 91.67,-93.36 159.57,-118.82 69.56,-27.15 149.37,-40.71 239.34,-40.71 79.77,0 151.06,8.47 213.88,27.15 62.78,16.95 120.52,37.32 169.74,59.39l-100.18 252.93c-52.61,-23.76 -103.53,-42.44 -152.76,-56.04 -50.92,-15.25 -98.45,-22.03 -140.89,-22.03 -28.85,0 -50.92,3.39 -69.6,10.17 -18.68,6.78 -32.24,15.29 -40.71,27.15 -8.51,11.9 -11.9,25.46 -11.9,40.75 0,18.68 6.78,35.63 22.07,50.92 15.29,15.29 39.05,30.54 72.99,49.22 35.66,16.98 83.16,39.05 142.59,66.21 59.39,25.46 108.65,54.31 149.37,86.55 42.44,30.58 72.99,67.9 95.06,110.35 22.07,42.44 33.97,95.06 33.97,157.88z"/>
  <polygon class="fil0" points="44720.92,10592.06 44001.17,10592.06 44001.17,9380.08 44720.92,9380.08 44720.92,9643.19 44328.79,9643.19 44328.79,9833.3 44692.03,9833.3 44692.03,10096.4 44328.79,10096.4 44328.79,10325.57 44720.92,10325.57 "/>
  <path class="fil0" d="M45355.74 9380.08c174.82,0 300.46,25.46 375.14,78.11 74.68,52.61 112.04,127.3 112.04,224.05 0,52.61 -10.21,98.45 -28.88,134.11 -18.64,37.32 -44.14,66.17 -72.99,88.24 -28.85,22.07 -57.7,35.66 -88.24,44.14l0 8.47c32.24,8.51 66.17,22.07 98.45,40.75 32.24,18.68 59.39,47.53 81.46,84.89 22.07,39.02 33.97,89.94 33.97,154.45 0,72.99 -18.68,137.5 -56.04,190.11 -37.32,52.61 -89.97,93.36 -159.57,122.21 -69.56,28.85 -151.06,42.44 -246.12,42.44l-471.9 0 0 -1211.98 422.67 0zm3.39 465.12c54.34,0 93.36,-11.9 115.43,-33.97 22.07,-22.07 32.24,-49.22 32.24,-81.46 0,-32.24 -11.86,-57.7 -37.32,-74.68 -25.46,-18.68 -64.51,-27.15 -117.13,-27.15l-91.67 0 0 217.27 98.45 0zm-98.45 239.34l0 254.59 115.43 0c56,0 96.75,-11.86 118.82,-35.63 22.07,-25.46 33.93,-56 33.93,-93.36 0,-22.07 -5.08,-42.44 -15.25,-61.12 -8.51,-18.64 -25.46,-35.63 -49.22,-47.53 -22.07,-11.86 -54.34,-16.95 -95.06,-16.95l-108.65 0z"/>
  <path class="fil0" d="M46820.65 10592.06l-59.43 -227.47 -393.79 0 -61.12 227.47 -359.85 0 395.52 -1217.06 436.23 0 400.6 1217.06 -358.16 0zm-179.95 -694.25c-5.08,-22.07 -13.6,-52.61 -23.76,-91.67 -10.17,-40.75 -20.37,-83.16 -30.54,-125.6 -10.21,-42.44 -18.68,-78.07 -23.76,-105.26 -5.08,27.19 -11.9,61.12 -22.07,101.87 -8.51,40.71 -18.68,81.46 -28.85,120.52 -8.51,39.02 -16.98,72.99 -23.76,100.14l-52.65 198.59 258.02 0 -52.61 -198.59z"/>
  <path class="fil0" d="M48102.23 10223.73c0,66.17 -16.98,127.3 -50.95,186.69 -32.24,59.43 -83.16,106.96 -152.76,144.28 -69.6,35.66 -161.27,54.34 -271.58,54.34 -56.04,0 -103.57,-3.39 -145.98,-8.51 -40.75,-5.08 -79.8,-11.86 -115.43,-23.76 -35.66,-11.86 -72.99,-25.46 -112.04,-44.1l0 -291.99c66.21,32.27 132.42,57.73 198.59,76.38 66.21,16.98 127.33,25.5 181.64,25.5 32.24,0 59.43,-3.43 79.77,-11.9 20.37,-8.47 35.66,-18.68 45.83,-32.24 10.21,-13.6 15.29,-28.85 15.29,-45.83 0,-22.07 -6.78,-39.05 -22.07,-54.31 -15.29,-15.29 -37.36,-30.58 -69.6,-45.83 -32.24,-15.29 -74.68,-35.66 -127.3,-59.43 -45.83,-20.37 -86.58,-42.44 -122.21,-64.51 -35.66,-22.03 -67.9,-47.53 -93.36,-76.38 -25.46,-28.85 -44.14,-61.09 -57.73,-100.14 -13.56,-37.36 -20.37,-81.46 -20.37,-134.11 0,-78.07 18.68,-142.59 57.73,-195.2 39.05,-52.61 91.67,-93.36 159.57,-118.82 69.56,-27.15 149.37,-40.71 239.34,-40.71 79.77,0 151.06,8.47 213.88,27.15 62.78,16.95 120.52,37.32 169.74,59.39l-100.18 252.93c-52.61,-23.76 -103.53,-42.44 -152.76,-56.04 -50.92,-15.25 -98.45,-22.03 -140.89,-22.03 -28.85,0 -50.92,3.39 -69.6,10.17 -18.68,6.78 -32.24,15.29 -40.71,27.15 -8.51,11.9 -11.9,25.46 -11.9,40.75 0,18.68 6.78,35.63 22.07,50.92 15.29,15.29 39.05,30.54 72.99,49.22 35.66,16.98 83.16,39.05 142.59,66.21 59.39,25.46 108.65,54.31 149.37,86.55 42.44,30.58 72.99,67.9 95.06,110.35 22.07,42.44 33.97,95.06 33.97,157.88z"/>
  <polygon class="fil0" points="48823.63,10592.06 48496.02,10592.06 48496.02,9648.31 48200.68,9648.31 48200.68,9380.08 49118.97,9380.08 49118.97,9648.31 48823.63,9648.31 "/>
  <polygon class="fil0" points="49850.58,10592.06 49219.11,10592.06 49219.11,10405.34 49370.21,10347.64 49370.21,9622.81 49219.11,9566.81 49219.11,9380.08 49850.58,9380.08 49850.58,9566.81 49699.52,9622.81 49699.52,10347.64 49850.58,10405.34 "/>
  <path class="fil0" d="M50782.47 10592.06l-59.43 -227.47 -393.79 0 -61.12 227.47 -359.85 0 395.52 -1217.06 436.23 0 400.6 1217.06 -358.16 0zm-179.95 -694.25c-5.08,-22.07 -13.6,-52.61 -23.76,-91.67 -10.17,-40.75 -20.37,-83.16 -30.54,-125.6 -10.21,-42.44 -18.68,-78.07 -23.76,-105.26 -5.08,27.19 -11.9,61.12 -22.07,101.87 -8.51,40.71 -18.68,81.46 -28.85,120.52 -8.51,39.02 -16.98,72.99 -23.76,100.14l-52.65 198.59 258.02 0 -52.61 -198.59zm-426.06 -604.28c3.39,-52.65 10.21,-96.75 20.37,-132.42 11.9,-35.63 25.46,-64.51 42.44,-86.55 18.68,-22.07 39.02,-39.05 62.78,-49.26 25.5,-10.17 52.65,-15.25 83.19,-15.25 22.07,0 44.14,3.39 66.21,11.86 23.76,8.51 47.53,16.98 72.99,28.88 25.46,10.17 49.22,18.64 72.99,27.15 22.07,8.47 44.14,11.86 66.21,11.86 10.17,0 20.34,-5.08 32.24,-13.56 11.86,-10.21 22.07,-32.27 27.15,-67.9l151.06 0c-6.78,101.84 -28.85,174.82 -66.17,218.96 -37.36,42.44 -83.19,64.51 -137.5,64.51 -25.46,0 -49.22,-3.43 -74.68,-11.9 -25.46,-8.47 -49.22,-16.98 -74.68,-27.15 -23.76,-11.9 -47.53,-20.37 -71.29,-28.85 -22.07,-8.51 -44.14,-11.9 -64.51,-11.9 -10.17,0 -20.37,5.08 -32.24,13.6 -11.9,8.47 -20.37,32.24 -27.19,67.9l-149.37 0z"/>
  <path class="fil0" d="M52371.26 9984.4c0,93.33 -11.9,179.91 -33.97,256.29 -22.03,76.38 -57.7,140.89 -105.23,196.93 -47.53,56 -108.62,98.45 -183.33,127.3 -72.99,28.85 -162.92,44.14 -266.49,44.14 -101.84,0 -190.11,-15.29 -264.8,-44.14 -72.99,-28.85 -134.08,-71.29 -181.6,-127.3 -49.22,-56.04 -84.89,-120.55 -106.96,-196.93 -23.76,-76.38 -35.63,-162.96 -35.63,-257.98 0,-125.64 20.34,-234.25 62.78,-327.62 42.44,-93.36 106.96,-166.35 193.5,-217.27 86.58,-50.92 198.62,-76.38 334.4,-76.38 137.5,0 249.54,25.46 336.09,78.07 86.58,50.92 151.1,122.21 190.11,215.57 40.75,93.36 61.12,203.67 61.12,329.31zm-833.45 0c0,72.99 8.47,135.77 23.76,188.38 16.98,52.65 44.14,91.67 79.77,120.55 35.66,28.85 83.19,42.41 140.89,42.41 59.43,0 106.96,-13.56 142.59,-42.41 35.66,-28.88 62.82,-67.9 78.07,-120.55 15.29,-52.61 23.76,-115.4 23.76,-188.38 0,-110.35 -18.64,-196.93 -54.31,-259.71 -35.63,-62.82 -98.45,-95.06 -188.42,-95.06 -59.39,0 -106.92,13.56 -142.59,42.44 -35.63,28.85 -62.78,71.29 -79.77,123.91 -15.29,52.61 -23.76,115.43 -23.76,188.42z"/>
 </g>
</svg>
